<!-- <svg xmlns="http://www.w3.org/2000/svg" version="1.1" xmlns:xlink="http://www.w3.org/1999/xlink" xmlns:svgjs="http://svgjs.dev/svgjs" viewBox="0 0 1422 800" opacity="1"><defs><linearGradient x1="50%" y1="0%" x2="50%" y2="100%" id="oooscillate-grad"><stop stop-color="#c94747" stop-opacity="1" offset="0%"></stop><stop stop-color="#c94747" stop-opacity="1" offset="100%"></stop></linearGradient></defs><g stroke-width="1.5" stroke="url(#oooscillate-grad)" fill="none" stroke-linecap="round"><path d="M 0 1320 Q 355.5 20 711 400 Q 1066.5 780 1422 1320" opacity="0.05"></path><path d="M 0 1287 Q 355.5 20 711 400 Q 1066.5 780 1422 1287" opacity="0.07"></path><path d="M 0 1254 Q 355.5 20 711 400 Q 1066.5 780 1422 1254" opacity="0.10"></path><path d="M 0 1221 Q 355.5 20 711 400 Q 1066.5 780 1422 1221" opacity="0.12"></path><path d="M 0 1188 Q 355.5 20 711 400 Q 1066.5 780 1422 1188" opacity="0.15"></path><path d="M 0 1155 Q 355.5 20 711 400 Q 1066.5 780 1422 1155" opacity="0.17"></path><path d="M 0 1122 Q 355.5 20 711 400 Q 1066.5 780 1422 1122" opacity="0.20"></path><path d="M 0 1089 Q 355.5 20 711 400 Q 1066.5 780 1422 1089" opacity="0.22"></path><path d="M 0 1056 Q 355.5 20 711 400 Q 1066.5 780 1422 1056" opacity="0.24"></path><path d="M 0 1023 Q 355.5 20 711 400 Q 1066.5 780 1422 1023" opacity="0.27"></path><path d="M 0 990 Q 355.5 20 711 400 Q 1066.5 780 1422 990" opacity="0.29"></path><path d="M 0 957 Q 355.5 20 711 400 Q 1066.5 780 1422 957" opacity="0.32"></path><path d="M 0 924 Q 355.5 20 711 400 Q 1066.5 780 1422 924" opacity="0.34"></path><path d="M 0 891 Q 355.5 20 711 400 Q 1066.5 780 1422 891" opacity="0.37"></path><path d="M 0 858 Q 355.5 20 711 400 Q 1066.5 780 1422 858" opacity="0.39"></path><path d="M 0 825 Q 355.5 20 711 400 Q 1066.5 780 1422 825" opacity="0.42"></path><path d="M 0 792 Q 355.5 20 711 400 Q 1066.5 780 1422 792" opacity="0.44"></path><path d="M 0 759 Q 355.5 20 711 400 Q 1066.5 780 1422 759" opacity="0.46"></path><path d="M 0 726 Q 355.5 20 711 400 Q 1066.5 780 1422 726" opacity="0.49"></path><path d="M 0 693 Q 355.5 20 711 400 Q 1066.5 780 1422 693" opacity="0.51"></path><path d="M 0 660 Q 355.5 20 711 400 Q 1066.5 780 1422 660" opacity="0.54"></path><path d="M 0 627 Q 355.5 20 711 400 Q 1066.5 780 1422 627" opacity="0.56"></path><path d="M 0 594 Q 355.5 20 711 400 Q 1066.5 780 1422 594" opacity="0.59"></path><path d="M 0 561 Q 355.5 20 711 400 Q 1066.5 780 1422 561" opacity="0.61"></path><path d="M 0 528 Q 355.5 20 711 400 Q 1066.5 780 1422 528" opacity="0.63"></path><path d="M 0 495 Q 355.5 20 711 400 Q 1066.5 780 1422 495" opacity="0.66"></path><path d="M 0 462 Q 355.5 20 711 400 Q 1066.5 780 1422 462" opacity="0.68"></path><path d="M 0 429 Q 355.5 20 711 400 Q 1066.5 780 1422 429" opacity="0.71"></path><path d="M 0 396 Q 355.5 20 711 400 Q 1066.5 780 1422 396" opacity="0.73"></path><path d="M 0 363 Q 355.5 20 711 400 Q 1066.5 780 1422 363" opacity="0.76"></path><path d="M 0 330 Q 355.5 20 711 400 Q 1066.5 780 1422 330" opacity="0.78"></path><path d="M 0 297 Q 355.5 20 711 400 Q 1066.5 780 1422 297" opacity="0.81"></path><path d="M 0 264 Q 355.5 20 711 400 Q 1066.5 780 1422 264" opacity="0.83"></path><path d="M 0 231 Q 355.5 20 711 400 Q 1066.5 780 1422 231" opacity="0.85"></path><path d="M 0 198 Q 355.5 20 711 400 Q 1066.5 780 1422 198" opacity="0.88"></path><path d="M 0 165 Q 355.5 20 711 400 Q 1066.5 780 1422 165" opacity="0.90"></path><path d="M 0 132 Q 355.5 20 711 400 Q 1066.5 780 1422 132" opacity="0.93"></path><path d="M 0 99 Q 355.5 20 711 400 Q 1066.5 780 1422 99" opacity="0.95"></path><path d="M 0 66 Q 355.5 20 711 400 Q 1066.5 780 1422 66" opacity="0.98"></path></g></svg> -->

<svg xmlns="http://www.w3.org/2000/svg" viewBox="0 0 1422 800">
  <defs>
    <linearGradient x1="50%" y1="0%" x2="50%" y2="100%" id="oooscillate-grad">
      <stop stop-color="#c94747" stop-opacity="1" offset="0%"></stop>
      <stop stop-color="#c94747" stop-opacity="1" offset="100%"></stop>
    </linearGradient>
  </defs>
  <g stroke-width="1.5" stroke="url(#oooscillate-grad)" fill="none" stroke-linecap="round">
    <!-- Fale od opacity 0.05 do 1, Y startowe od 800 do 0 -->
    <path d="M 0 800 Q 355.5 0 711 400 Q 1066.5 800 1422 800" opacity="0.05"/>
    <path d="M 0 760 Q 355.5 0 711 400 Q 1066.5 800 1422 760" opacity="0.10"/>
    <path d="M 0 720 Q 355.5 0 711 400 Q 1066.5 800 1422 720" opacity="0.15"/>
    <path d="M 0 680 Q 355.5 0 711 400 Q 1066.5 800 1422 680" opacity="0.20"/>
    <path d="M 0 640 Q 355.5 0 711 400 Q 1066.5 800 1422 640" opacity="0.25"/>
    <path d="M 0 600 Q 355.5 0 711 400 Q 1066.5 800 1422 600" opacity="0.30"/>
    <path d="M 0 560 Q 355.5 0 711 400 Q 1066.5 800 1422 560" opacity="0.35"/>
    <path d="M 0 520 Q 355.5 0 711 400 Q 1066.5 800 1422 520" opacity="0.40"/>
    <path d="M 0 480 Q 355.5 0 711 400 Q 1066.5 800 1422 480" opacity="0.45"/>
    <path d="M 0 440 Q 355.5 0 711 400 Q 1066.5 800 1422 440" opacity="0.50"/>
    <path d="M 0 400 Q 355.5 0 711 400 Q 1066.5 800 1422 400" opacity="0.55"/>
    <path d="M 0 360 Q 355.5 0 711 400 Q 1066.5 800 1422 360" opacity="0.60"/>
    <path d="M 0 320 Q 355.5 0 711 400 Q 1066.5 800 1422 320" opacity="0.65"/>
    <path d="M 0 280 Q 355.5 0 711 400 Q 1066.5 800 1422 280" opacity="0.70"/>
    <path d="M 0 240 Q 355.5 0 711 400 Q 1066.5 800 1422 240" opacity="0.75"/>
    <path d="M 0 200 Q 355.5 0 711 400 Q 1066.5 800 1422 200" opacity="0.80"/>
    <path d="M 0 160 Q 355.5 0 711 400 Q 1066.5 800 1422 160" opacity="0.85"/>
    <path d="M 0 120 Q 355.5 0 711 400 Q 1066.5 800 1422 120" opacity="0.90"/>
    <path d="M 0 80 Q 355.5 0 711 400 Q 1066.5 800 1422 80" opacity="0.95"/>
    <path d="M 0 40 Q 355.5 0 711 400 Q 1066.5 800 1422 40" opacity="1.00"/>
  </g>
</svg>