<svg xmlns="http://www.w3.org/2000/svg" version="1.1" xmlns:xlink="http://www.w3.org/1999/xlink" xmlns:svgjs="http://svgjs.dev/svgjs" viewBox="0 0 2400 800" opacity="1"><defs><linearGradient x1="50%" y1="0%" x2="50%" y2="100%" id="oooscillate-grad"><stop stop-color="currentColor" stop-opacity="1" offset="0%"></stop><stop stop-color="currentColor" stop-opacity="1" offset="100%"></stop></linearGradient></defs><g stroke-width="1.5" stroke="url(#oooscillate-grad)" fill="none" stroke-linecap="round"><path d="M 0 1320 Q 600 20 1200 400 Q 1800 780 2400 1320" opacity="0.05"></path><path d="M 0 1287 Q 600 20 1200 400 Q 1800 780 2400 1287" opacity="0.07"></path><path d="M 0 1254 Q 600 20 1200 400 Q 1800 780 2400 1254" opacity="0.10"></path><path d="M 0 1221 Q 600 20 1200 400 Q 1800 780 2400 1221" opacity="0.12"></path><path d="M 0 1188 Q 600 20 1200 400 Q 1800 780 2400 1188" opacity="0.15"></path><path d="M 0 1155 Q 600 20 1200 400 Q 1800 780 2400 1155" opacity="0.17"></path><path d="M 0 1122 Q 600 20 1200 400 Q 1800 780 2400 1122" opacity="0.20"></path><path d="M 0 1089 Q 600 20 1200 400 Q 1800 780 2400 1089" opacity="0.22"></path><path d="M 0 1056 Q 600 20 1200 400 Q 1800 780 2400 1056" opacity="0.24"></path><path d="M 0 1023 Q 600 20 1200 400 Q 1800 780 2400 1023" opacity="0.27"></path><path d="M 0 990 Q 600 20 1200 400 Q 1800 780 2400 990" opacity="0.29"></path><path d="M 0 957 Q 600 20 1200 400 Q 1800 780 2400 957" opacity="0.32"></path><path d="M 0 924 Q 600 20 1200 400 Q 1800 780 2400 924" opacity="0.34"></path><path d="M 0 891 Q 600 20 1200 400 Q 1800 780 2400 891" opacity="0.37"></path><path d="M 0 858 Q 600 20 1200 400 Q 1800 780 2400 858" opacity="0.39"></path><path d="M 0 825 Q 600 20 1200 400 Q 1800 780 2400 825" opacity="0.42"></path><path d="M 0 792 Q 600 20 1200 400 Q 1800 780 2400 792" opacity="0.44"></path><path d="M 0 759 Q 600 20 1200 400 Q 1800 780 2400 759" opacity="0.46"></path><path d="M 0 726 Q 600 20 1200 400 Q 1800 780 2400 726" opacity="0.49"></path><path d="M 0 693 Q 600 20 1200 400 Q 1800 780 2400 693" opacity="0.51"></path><path d="M 0 660 Q 600 20 1200 400 Q 1800 780 2400 660" opacity="0.54"></path><path d="M 0 627 Q 600 20 1200 400 Q 1800 780 2400 627" opacity="0.56"></path><path d="M 0 594 Q 600 20 1200 400 Q 1800 780 2400 594" opacity="0.59"></path><path d="M 0 561 Q 600 20 1200 400 Q 1800 780 2400 561" opacity="0.61"></path><path d="M 0 528 Q 600 20 1200 400 Q 1800 780 2400 528" opacity="0.63"></path><path d="M 0 495 Q 600 20 1200 400 Q 1800 780 2400 495" opacity="0.66"></path><path d="M 0 462 Q 600 20 1200 400 Q 1800 780 2400 462" opacity="0.68"></path><path d="M 0 429 Q 600 20 1200 400 Q 1800 780 2400 429" opacity="0.71"></path><path d="M 0 396 Q 600 20 1200 400 Q 1800 780 2400 396" opacity="0.73"></path><path d="M 0 363 Q 600 20 1200 400 Q 1800 780 2400 363" opacity="0.76"></path><path d="M 0 330 Q 600 20 1200 400 Q 1800 780 2400 330" opacity="0.78"></path><path d="M 0 297 Q 600 20 1200 400 Q 1800 780 2400 297" opacity="0.81"></path><path d="M 0 264 Q 600 20 1200 400 Q 1800 780 2400 264" opacity="0.83"></path><path d="M 0 231 Q 600 20 1200 400 Q 1800 780 2400 231" opacity="0.85"></path><path d="M 0 198 Q 600 20 1200 400 Q 1800 780 2400 198" opacity="0.88"></path><path d="M 0 165 Q 600 20 1200 400 Q 1800 780 2400 165" opacity="0.90"></path><path d="M 0 132 Q 600 20 1200 400 Q 1800 780 2400 132" opacity="0.93"></path><path d="M 0 99 Q 600 20 1200 400 Q 1800 780 2400 99" opacity="0.95"></path><path d="M 0 66 Q 600 20 1200 400 Q 1800 780 2400 66" opacity="0.98"></path></g></svg>