
<svg viewBox="0 0 1200 700" fill="none" xmlns="http://www.w3.org/2000/svg" aria-label="Animated topographic wave" role="img" preserveAspectRatio="xMidYMid meet"><rect width="1200" height="700" fill="#1F1D1D;"></rect><g stroke="currentColor" stroke-width="1" stroke-linecap="round" opacity="0.96"><path d="M40.00 50.17 L49.33 49.35 L58.67 48.55 L68.00 47.78 L77.33 47.04 L86.67 46.33 L96.00 45.65 L105.33 44.99 L114.67 44.35 L124.00 43.74 L133.33 43.16 L142.67 42.60 L152.00 42.06 L161.33 41.54 L170.67 41.05 L180.00 40.58 L189.33 40.14 L198.67 39.72 L208.00 39.32 L217.33 38.94 L226.67 38.60 L236.00 38.27 L245.33 37.98 L254.67 37.71 L264.00 37.48 L273.33 37.27 L282.67 37.10 L292.00 36.96 L301.33 36.87 L310.67 36.81 L320.00 36.79 L329.33 36.82 L338.67 36.89 L348.00 37.01 L357.33 37.18 L366.67 37.40 L376.00 37.68 L385.33 38.01 L394.67 38.40 L404.00 38.85 L413.33 39.36 L422.67 39.94 L432.00 40.57 L441.33 41.27 L450.67 42.03 L460.00 42.86 L469.33 43.74 L478.67 44.70 L488.00 45.71 L497.33 46.78 L506.67 47.91 L516.00 49.10 L525.33 50.34 L534.67 51.63 L544.00 52.96 L553.33 54.34 L562.67 55.76 L572.00 57.22 L581.33 58.70 L590.67 60.21 L600.00 61.75 L609.33 63.29 L618.67 64.85 L628.00 66.40 L637.33 67.96 L646.67 69.50 L656.00 71.03 L665.33 72.54 L674.67 74.02 L684.00 75.47 L693.33 76.87 L702.67 78.23 L712.00 79.53 L721.33 80.78 L730.67 81.96 L740.00 83.07 L749.33 84.10 L758.67 85.06 L768.00 85.93 L777.33 86.71 L786.67 87.40 L796.00 87.99 L805.33 88.49 L814.67 88.89 L824.00 89.18 L833.33 89.37 L842.67 89.46 L852.00 89.45 L861.33 89.32 L870.67 89.10 L880.00 88.78 L889.33 88.35 L898.67 87.83 L908.00 87.21 L917.33 86.50 L926.67 85.70 L936.00 84.82 L945.33 83.85 L954.67 82.82 L964.00 81.71 L973.33 80.54 L982.67 79.31 L992.00 78.03 L1001.33 76.70 L1010.67 75.33 L1020.00 73.92 L1029.33 72.49 L1038.67 71.04 L1048.00 69.57 L1057.33 68.09 L1066.67 66.61 L1076.00 65.13 L1085.33 63.66 L1094.67 62.21 L1104.00 60.78 L1113.33 59.37 L1122.67 58.00 L1132.00 56.65 L1141.33 55.35 L1150.67 54.10 L1160.00 52.88"></path><path d="M40.00 59.77 L49.33 59.06 L58.67 58.39 L68.00 57.76 L77.33 57.17 L86.67 56.62 L96.00 56.10 L105.33 55.62 L114.67 55.17 L124.00 54.76 L133.33 54.38 L142.67 54.03 L152.00 53.71 L161.33 53.43 L170.67 53.17 L180.00 52.94 L189.33 52.74 L198.67 52.57 L208.00 52.42 L217.33 52.30 L226.67 52.22 L236.00 52.16 L245.33 52.13 L254.67 52.13 L264.00 52.17 L273.33 52.23 L282.67 52.33 L292.00 52.47 L301.33 52.64 L310.67 52.85 L320.00 53.10 L329.33 53.39 L338.67 53.73 L348.00 54.11 L357.33 54.53 L366.67 55.01 L376.00 55.53 L385.33 56.10 L394.67 56.72 L404.00 57.40 L413.33 58.13 L422.67 58.91 L432.00 59.74 L441.33 60.63 L450.67 61.58 L460.00 62.57 L469.33 63.62 L478.67 64.72 L488.00 65.86 L497.33 67.06 L506.67 68.29 L516.00 69.57 L525.33 70.89 L534.67 72.25 L544.00 73.64 L553.33 75.05 L562.67 76.49 L572.00 77.95 L581.33 79.42 L590.67 80.90 L600.00 82.38 L609.33 83.87 L618.67 85.34 L628.00 86.80 L637.33 88.25 L646.67 89.66 L656.00 91.05 L665.33 92.39 L674.67 93.70 L684.00 94.95 L693.33 96.15 L702.67 97.29 L712.00 98.36 L721.33 99.35 L730.67 100.28 L740.00 101.12 L749.33 101.87 L758.67 102.53 L768.00 103.11 L777.33 103.58 L786.67 103.96 L796.00 104.23 L805.33 104.40 L814.67 104.47 L824.00 104.43 L833.33 104.29 L842.67 104.04 L852.00 103.69 L861.33 103.24 L870.67 102.68 L880.00 102.03 L889.33 101.28 L898.67 100.44 L908.00 99.52 L917.33 98.51 L926.67 97.41 L936.00 96.25 L945.33 95.02 L954.67 93.72 L964.00 92.36 L973.33 90.96 L982.67 89.51 L992.00 88.02 L1001.33 86.50 L1010.67 84.96 L1020.00 83.40 L1029.33 81.82 L1038.67 80.25 L1048.00 78.67 L1057.33 77.10 L1066.67 75.55 L1076.00 74.02 L1085.33 72.52 L1094.67 71.05 L1104.00 69.62 L1113.33 68.23 L1122.67 66.89 L1132.00 65.60 L1141.33 64.37 L1150.67 63.20 L1160.00 62.10"></path><path d="M40.00 69.89 L49.33 69.36 L58.67 68.88 L68.00 68.45 L77.33 68.07 L86.67 67.73 L96.00 67.44 L105.33 67.20 L114.67 66.99 L124.00 66.82 L133.33 66.69 L142.67 66.60 L152.00 66.54 L161.33 66.52 L170.67 66.53 L180.00 66.57 L189.33 66.64 L198.67 66.74 L208.00 66.87 L217.33 67.02 L226.67 67.21 L236.00 67.43 L245.33 67.67 L254.67 67.95 L264.00 68.25 L273.33 68.58 L282.67 68.95 L292.00 69.34 L301.33 69.77 L310.67 70.23 L320.00 70.73 L329.33 71.26 L338.67 71.83 L348.00 72.44 L357.33 73.08 L366.67 73.77 L376.00 74.49 L385.33 75.26 L394.67 76.07 L404.00 76.92 L413.33 77.82 L422.67 78.75 L432.00 79.73 L441.33 80.75 L450.67 81.81 L460.00 82.92 L469.33 84.06 L478.67 85.24 L488.00 86.45 L497.33 87.69 L506.67 88.97 L516.00 90.27 L525.33 91.60 L534.67 92.95 L544.00 94.31 L553.33 95.69 L562.67 97.07 L572.00 98.46 L581.33 99.85 L590.67 101.22 L600.00 102.59 L609.33 103.94 L618.67 105.27 L628.00 106.56 L637.33 107.83 L646.67 109.05 L656.00 110.23 L665.33 111.35 L674.67 112.42 L684.00 113.43 L693.33 114.37 L702.67 115.23 L712.00 116.02 L721.33 116.73 L730.67 117.35 L740.00 117.89 L749.33 118.33 L758.67 118.67 L768.00 118.92 L777.33 119.06 L786.67 119.10 L796.00 119.04 L805.33 118.88 L814.67 118.61 L824.00 118.23 L833.33 117.76 L842.67 117.18 L852.00 116.50 L861.33 115.73 L870.67 114.86 L880.00 113.90 L889.33 112.86 L898.67 111.73 L908.00 110.53 L917.33 109.25 L926.67 107.91 L936.00 106.50 L945.33 105.04 L954.67 103.54 L964.00 101.99 L973.33 100.41 L982.67 98.79 L992.00 97.16 L1001.33 95.52 L1010.67 93.86 L1020.00 92.21 L1029.33 90.57 L1038.67 88.94 L1048.00 87.33 L1057.33 85.75 L1066.67 84.20 L1076.00 82.69 L1085.33 81.23 L1094.67 79.82 L1104.00 78.46 L1113.33 77.17 L1122.67 75.94 L1132.00 74.79 L1141.33 73.70 L1150.67 72.69 L1160.00 71.76"></path><path d="M40.00 80.85 L49.33 80.56 L58.67 80.32 L68.00 80.15 L77.33 80.03 L86.67 79.96 L96.00 79.93 L105.33 79.96 L114.67 80.03 L124.00 80.14 L133.33 80.30 L142.67 80.49 L152.00 80.71 L161.33 80.97 L170.67 81.27 L180.00 81.59 L189.33 81.94 L198.67 82.32 L208.00 82.73 L217.33 83.16 L226.67 83.62 L236.00 84.10 L245.33 84.61 L254.67 85.14 L264.00 85.70 L273.33 86.28 L282.67 86.88 L292.00 87.51 L301.33 88.16 L310.67 88.84 L320.00 89.54 L329.33 90.27 L338.67 91.03 L348.00 91.82 L357.33 92.63 L366.67 93.48 L376.00 94.35 L385.33 95.26 L394.67 96.19 L404.00 97.16 L413.33 98.16 L422.67 99.18 L432.00 100.24 L441.33 101.32 L450.67 102.44 L460.00 103.57 L469.33 104.74 L478.67 105.92 L488.00 107.13 L497.33 108.35 L506.67 109.59 L516.00 110.85 L525.33 112.11 L534.67 113.38 L544.00 114.64 L553.33 115.91 L562.67 117.17 L572.00 118.42 L581.33 119.65 L590.67 120.86 L600.00 122.04 L609.33 123.19 L618.67 124.31 L628.00 125.38 L637.33 126.41 L646.67 127.39 L656.00 128.30 L665.33 129.16 L674.67 129.95 L684.00 130.67 L693.33 131.31 L702.67 131.87 L712.00 132.34 L721.33 132.73 L730.67 133.03 L740.00 133.23 L749.33 133.34 L758.67 133.35 L768.00 133.26 L777.33 133.07 L786.67 132.78 L796.00 132.38 L805.33 131.89 L814.67 131.29 L824.00 130.60 L833.33 129.81 L842.67 128.93 L852.00 127.95 L861.33 126.89 L870.67 125.74 L880.00 124.52 L889.33 123.22 L898.67 121.85 L908.00 120.41 L917.33 118.92 L926.67 117.38 L936.00 115.80 L945.33 114.17 L954.67 112.52 L964.00 110.84 L973.33 109.15 L982.67 107.44 L992.00 105.74 L1001.33 104.04 L1010.67 102.35 L1020.00 100.68 L1029.33 99.05 L1038.67 97.44 L1048.00 95.87 L1057.33 94.36 L1066.67 92.89 L1076.00 91.48 L1085.33 90.14 L1094.67 88.87 L1104.00 87.66 L1113.33 86.54 L1122.67 85.50 L1132.00 84.54 L1141.33 83.67 L1150.67 82.89 L1160.00 82.20"></path><path d="M40.00 92.92 L49.33 92.92 L58.67 92.97 L68.00 93.09 L77.33 93.27 L86.67 93.49 L96.00 93.77 L105.33 94.10 L114.67 94.47 L124.00 94.88 L133.33 95.33 L142.67 95.82 L152.00 96.33 L161.33 96.88 L170.67 97.46 L180.00 98.07 L189.33 98.69 L198.67 99.34 L208.00 100.01 L217.33 100.70 L226.67 101.41 L236.00 102.13 L245.33 102.87 L254.67 103.63 L264.00 104.40 L273.33 105.18 L282.67 105.98 L292.00 106.79 L301.33 107.62 L310.67 108.47 L320.00 109.33 L329.33 110.20 L338.67 111.09 L348.00 112.00 L357.33 112.92 L366.67 113.86 L376.00 114.82 L385.33 115.80 L394.67 116.79 L404.00 117.80 L413.33 118.83 L422.67 119.87 L432.00 120.93 L441.33 122.01 L450.67 123.10 L460.00 124.20 L469.33 125.31 L478.67 126.43 L488.00 127.55 L497.33 128.68 L506.67 129.82 L516.00 130.95 L525.33 132.07 L534.67 133.19 L544.00 134.30 L553.33 135.38 L562.67 136.45 L572.00 137.50 L581.33 138.51 L590.67 139.50 L600.00 140.44 L609.33 141.35 L618.67 142.20 L628.00 143.01 L637.33 143.75 L646.67 144.44 L656.00 145.06 L665.33 145.62 L674.67 146.09 L684.00 146.50 L693.33 146.82 L702.67 147.05 L712.00 147.20 L721.33 147.26 L730.67 147.22 L740.00 147.10 L749.33 146.87 L758.67 146.55 L768.00 146.14 L777.33 145.62 L786.67 145.01 L796.00 144.31 L805.33 143.51 L814.67 142.61 L824.00 141.63 L833.33 140.56 L842.67 139.41 L852.00 138.18 L861.33 136.88 L870.67 135.50 L880.00 134.06 L889.33 132.57 L898.67 131.01 L908.00 129.42 L917.33 127.78 L926.67 126.11 L936.00 124.41 L945.33 122.69 L954.67 120.97 L964.00 119.23 L973.33 117.50 L982.67 115.79 L992.00 114.09 L1001.33 112.41 L1010.67 110.77 L1020.00 109.17 L1029.33 107.61 L1038.67 106.11 L1048.00 104.67 L1057.33 103.29 L1066.67 101.98 L1076.00 100.75 L1085.33 99.60 L1094.67 98.54 L1104.00 97.56 L1113.33 96.68 L1122.67 95.89 L1132.00 95.19 L1141.33 94.60 L1150.67 94.11 L1160.00 93.71"></path><path d="M40.00 106.34 L49.33 106.65 L58.67 107.03 L68.00 107.46 L77.33 107.95 L86.67 108.50 L96.00 109.09 L105.33 109.72 L114.67 110.39 L124.00 111.11 L133.33 111.85 L142.67 112.62 L152.00 113.42 L161.33 114.25 L170.67 115.09 L180.00 115.95 L189.33 116.83 L198.67 117.72 L208.00 118.62 L217.33 119.52 L226.67 120.44 L236.00 121.36 L245.33 122.29 L254.67 123.22 L264.00 124.15 L273.33 125.09 L282.67 126.03 L292.00 126.97 L301.33 127.92 L310.67 128.86 L320.00 129.81 L329.33 130.76 L338.67 131.72 L348.00 132.67 L357.33 133.64 L366.67 134.60 L376.00 135.57 L385.33 136.54 L394.67 137.52 L404.00 138.50 L413.33 139.48 L422.67 140.47 L432.00 141.46 L441.33 142.45 L450.67 143.44 L460.00 144.43 L469.33 145.41 L478.67 146.40 L488.00 147.37 L497.33 148.34 L506.67 149.30 L516.00 150.24 L525.33 151.17 L534.67 152.08 L544.00 152.96 L553.33 153.82 L562.67 154.64 L572.00 155.43 L581.33 156.19 L590.67 156.90 L600.00 157.56 L609.33 158.18 L618.67 158.74 L628.00 159.24 L637.33 159.68 L646.67 160.06 L656.00 160.36 L665.33 160.60 L674.67 160.75 L684.00 160.83 L693.33 160.82 L702.67 160.73 L712.00 160.55 L721.33 160.29 L730.67 159.94 L740.00 159.49 L749.33 158.96 L758.67 158.33 L768.00 157.61 L777.33 156.81 L786.67 155.92 L796.00 154.94 L805.33 153.88 L814.67 152.73 L824.00 151.51 L833.33 150.22 L842.67 148.86 L852.00 147.43 L861.33 145.95 L870.67 144.41 L880.00 142.82 L889.33 141.19 L898.67 139.53 L908.00 137.84 L917.33 136.13 L926.67 134.41 L936.00 132.67 L945.33 130.94 L954.67 129.22 L964.00 127.52 L973.33 125.83 L982.67 124.18 L992.00 122.57 L1001.33 121.00 L1010.67 119.48 L1020.00 118.02 L1029.33 116.63 L1038.67 115.31 L1048.00 114.07 L1057.33 112.90 L1066.67 111.83 L1076.00 110.84 L1085.33 109.95 L1094.67 109.16 L1104.00 108.47 L1113.33 107.88 L1122.67 107.40 L1132.00 107.03 L1141.33 106.76 L1150.67 106.60 L1160.00 106.55"></path><path d="M40.00 121.25 L49.33 121.90 L58.67 122.60 L68.00 123.36 L77.33 124.17 L86.67 125.02 L96.00 125.92 L105.33 126.85 L114.67 127.81 L124.00 128.81 L133.33 129.82 L142.67 130.86 L152.00 131.91 L161.33 132.97 L170.67 134.05 L180.00 135.12 L189.33 136.21 L198.67 137.29 L208.00 138.37 L217.33 139.44 L226.67 140.51 L236.00 141.57 L245.33 142.63 L254.67 143.67 L264.00 144.71 L273.33 145.73 L282.67 146.74 L292.00 147.74 L301.33 148.73 L310.67 149.70 L320.00 150.67 L329.33 151.62 L338.67 152.56 L348.00 153.50 L357.33 154.42 L366.67 155.33 L376.00 156.23 L385.33 157.13 L394.67 158.01 L404.00 158.88 L413.33 159.75 L422.67 160.61 L432.00 161.45 L441.33 162.29 L450.67 163.11 L460.00 163.92 L469.33 164.72 L478.67 165.50 L488.00 166.27 L497.33 167.01 L506.67 167.74 L516.00 168.44 L525.33 169.12 L534.67 169.76 L544.00 170.38 L553.33 170.96 L562.67 171.50 L572.00 172.01 L581.33 172.47 L590.67 172.88 L600.00 173.24 L609.33 173.54 L618.67 173.79 L628.00 173.98 L637.33 174.10 L646.67 174.16 L656.00 174.14 L665.33 174.06 L674.67 173.90 L684.00 173.66 L693.33 173.34 L702.67 172.94 L712.00 172.46 L721.33 171.90 L730.67 171.26 L740.00 170.53 L749.33 169.72 L758.67 168.83 L768.00 167.86 L777.33 166.81 L786.67 165.69 L796.00 164.49 L805.33 163.22 L814.67 161.89 L824.00 160.50 L833.33 159.04 L842.67 157.54 L852.00 155.99 L861.33 154.40 L870.67 152.77 L880.00 151.11 L889.33 149.43 L898.67 147.74 L908.00 146.04 L917.33 144.33 L926.67 142.64 L936.00 140.95 L945.33 139.29 L954.67 137.66 L964.00 136.06 L973.33 134.50 L982.67 133.00 L992.00 131.55 L1001.33 130.16 L1010.67 128.85 L1020.00 127.61 L1029.33 126.45 L1038.67 125.38 L1048.00 124.40 L1057.33 123.51 L1066.67 122.73 L1076.00 122.05 L1085.33 121.48 L1094.67 121.01 L1104.00 120.66 L1113.33 120.41 L1122.67 120.28 L1132.00 120.26 L1141.33 120.36 L1150.67 120.56 L1160.00 120.87"></path><path d="M40.00 137.73 L49.33 138.70 L58.67 139.72 L68.00 140.79 L77.33 141.90 L86.67 143.04 L96.00 144.22 L105.33 145.42 L114.67 146.64 L124.00 147.88 L133.33 149.13 L142.67 150.38 L152.00 151.64 L161.33 152.89 L170.67 154.14 L180.00 155.38 L189.33 156.61 L198.67 157.82 L208.00 159.01 L217.33 160.19 L226.67 161.35 L236.00 162.48 L245.33 163.59 L254.67 164.67 L264.00 165.73 L273.33 166.76 L282.67 167.77 L292.00 168.75 L301.33 169.70 L310.67 170.63 L320.00 171.54 L329.33 172.41 L338.67 173.27 L348.00 174.09 L357.33 174.90 L366.67 175.68 L376.00 176.45 L385.33 177.19 L394.67 177.91 L404.00 178.60 L413.33 179.28 L422.67 179.94 L432.00 180.58 L441.33 181.20 L450.67 181.79 L460.00 182.37 L469.33 182.92 L478.67 183.45 L488.00 183.95 L497.33 184.43 L506.67 184.88 L516.00 185.30 L525.33 185.69 L534.67 186.04 L544.00 186.36 L553.33 186.64 L562.67 186.88 L572.00 187.08 L581.33 187.23 L590.67 187.33 L600.00 187.38 L609.33 187.37 L618.67 187.31 L628.00 187.19 L637.33 187.00 L646.67 186.75 L656.00 186.44 L665.33 186.05 L674.67 185.60 L684.00 185.08 L693.33 184.48 L702.67 183.81 L712.00 183.07 L721.33 182.25 L730.67 181.37 L740.00 180.41 L749.33 179.38 L758.67 178.28 L768.00 177.11 L777.33 175.89 L786.67 174.60 L796.00 173.25 L805.33 171.85 L814.67 170.40 L824.00 168.90 L833.33 167.37 L842.67 165.80 L852.00 164.20 L861.33 162.58 L870.67 160.95 L880.00 159.30 L889.33 157.65 L898.67 156.01 L908.00 154.38 L917.33 152.76 L926.67 151.18 L936.00 149.62 L945.33 148.11 L954.67 146.64 L964.00 145.22 L973.33 143.87 L982.67 142.59 L992.00 141.37 L1001.33 140.24 L1010.67 139.19 L1020.00 138.24 L1029.33 137.38 L1038.67 136.61 L1048.00 135.96 L1057.33 135.40 L1066.67 134.96 L1076.00 134.63 L1085.33 134.41 L1094.67 134.31 L1104.00 134.33 L1113.33 134.46 L1122.67 134.70 L1132.00 135.06 L1141.33 135.53 L1150.67 136.10 L1160.00 136.79"></path><path d="M40.00 155.75 L49.33 157.02 L58.67 158.33 L68.00 159.68 L77.33 161.05 L86.67 162.45 L96.00 163.86 L105.33 165.28 L114.67 166.71 L124.00 168.14 L133.33 169.56 L142.67 170.97 L152.00 172.37 L161.33 173.74 L170.67 175.10 L180.00 176.43 L189.33 177.73 L198.67 179.00 L208.00 180.24 L217.33 181.44 L226.67 182.61 L236.00 183.73 L245.33 184.82 L254.67 185.86 L264.00 186.86 L273.33 187.83 L282.67 188.75 L292.00 189.63 L301.33 190.47 L310.67 191.27 L320.00 192.03 L329.33 192.76 L338.67 193.45 L348.00 194.10 L357.33 194.72 L366.67 195.30 L376.00 195.85 L385.33 196.37 L394.67 196.86 L404.00 197.33 L413.33 197.76 L422.67 198.16 L432.00 198.54 L441.33 198.89 L450.67 199.21 L460.00 199.50 L469.33 199.77 L478.67 200.01 L488.00 200.22 L497.33 200.40 L506.67 200.55 L516.00 200.66 L525.33 200.74 L534.67 200.79 L544.00 200.80 L553.33 200.78 L562.67 200.71 L572.00 200.60 L581.33 200.44 L590.67 200.24 L600.00 199.99 L609.33 199.69 L618.67 199.33 L628.00 198.93 L637.33 198.46 L646.67 197.94 L656.00 197.36 L665.33 196.72 L674.67 196.02 L684.00 195.25 L693.33 194.43 L702.67 193.54 L712.00 192.59 L721.33 191.58 L730.67 190.52 L740.00 189.39 L749.33 188.21 L758.67 186.97 L768.00 185.68 L777.33 184.35 L786.67 182.97 L796.00 181.55 L805.33 180.09 L814.67 178.60 L824.00 177.09 L833.33 175.55 L842.67 174.00 L852.00 172.44 L861.33 170.88 L870.67 169.32 L880.00 167.76 L889.33 166.23 L898.67 164.72 L908.00 163.24 L917.33 161.79 L926.67 160.39 L936.00 159.04 L945.33 157.75 L954.67 156.52 L964.00 155.36 L973.33 154.28 L982.67 153.27 L992.00 152.36 L1001.33 151.54 L1010.67 150.81 L1020.00 150.19 L1029.33 149.67 L1038.67 149.27 L1048.00 148.97 L1057.33 148.78 L1066.67 148.71 L1076.00 148.76 L1085.33 148.92 L1094.67 149.20 L1104.00 149.60 L1113.33 150.11 L1122.67 150.73 L1132.00 151.47 L1141.33 152.31 L1150.67 153.26 L1160.00 154.30"></path><path d="M40.00 175.20 L49.33 176.73 L58.67 178.29 L68.00 179.86 L77.33 181.44 L86.67 183.03 L96.00 184.61 L105.33 186.19 L114.67 187.76 L124.00 189.31 L133.33 190.83 L142.67 192.33 L152.00 193.79 L161.33 195.22 L170.67 196.60 L180.00 197.94 L189.33 199.24 L198.67 200.49 L208.00 201.68 L217.33 202.83 L226.67 203.91 L236.00 204.95 L245.33 205.93 L254.67 206.85 L264.00 207.72 L273.33 208.53 L282.67 209.29 L292.00 209.99 L301.33 210.64 L310.67 211.24 L320.00 211.79 L329.33 212.30 L338.67 212.75 L348.00 213.16 L357.33 213.53 L366.67 213.85 L376.00 214.14 L385.33 214.38 L394.67 214.59 L404.00 214.77 L413.33 214.91 L422.67 215.02 L432.00 215.09 L441.33 215.14 L450.67 215.15 L460.00 215.14 L469.33 215.10 L478.67 215.03 L488.00 214.93 L497.33 214.79 L506.67 214.63 L516.00 214.44 L525.33 214.22 L534.67 213.97 L544.00 213.68 L553.33 213.35 L562.67 212.99 L572.00 212.60 L581.33 212.16 L590.67 211.69 L600.00 211.17 L609.33 210.61 L618.67 210.00 L628.00 209.35 L637.33 208.66 L646.67 207.91 L656.00 207.12 L665.33 206.27 L674.67 205.38 L684.00 204.44 L693.33 203.45 L702.67 202.42 L712.00 201.33 L721.33 200.20 L730.67 199.02 L740.00 197.81 L749.33 196.55 L758.67 195.25 L768.00 193.92 L777.33 192.56 L786.67 191.17 L796.00 189.76 L805.33 188.33 L814.67 186.89 L824.00 185.44 L833.33 183.99 L842.67 182.54 L852.00 181.09 L861.33 179.67 L870.67 178.26 L880.00 176.88 L889.33 175.54 L898.67 174.23 L908.00 172.97 L917.33 171.77 L926.67 170.62 L936.00 169.54 L945.33 168.53 L954.67 167.60 L964.00 166.76 L973.33 166.00 L982.67 165.33 L992.00 164.76 L1001.33 164.29 L1010.67 163.93 L1020.00 163.67 L1029.33 163.53 L1038.67 163.50 L1048.00 163.58 L1057.33 163.78 L1066.67 164.10 L1076.00 164.53 L1085.33 165.08 L1094.67 165.74 L1104.00 166.51 L1113.33 167.39 L1122.67 168.38 L1132.00 169.47 L1141.33 170.66 L1150.67 171.95 L1160.00 173.32"></path><path d="M40.00 195.88 L49.33 197.61 L58.67 199.34 L68.00 201.07 L77.33 202.79 L86.67 204.50 L96.00 206.19 L105.33 207.85 L114.67 209.47 L124.00 211.06 L133.33 212.61 L142.67 214.10 L152.00 215.55 L161.33 216.94 L170.67 218.27 L180.00 219.54 L189.33 220.74 L198.67 221.88 L208.00 222.95 L217.33 223.95 L226.67 224.88 L236.00 225.74 L245.33 226.54 L254.67 227.26 L264.00 227.91 L273.33 228.50 L282.67 229.02 L292.00 229.48 L301.33 229.87 L310.67 230.20 L320.00 230.48 L329.33 230.70 L338.67 230.86 L348.00 230.97 L357.33 231.04 L366.67 231.06 L376.00 231.03 L385.33 230.96 L394.67 230.86 L404.00 230.71 L413.33 230.53 L422.67 230.32 L432.00 230.08 L441.33 229.81 L450.67 229.50 L460.00 229.17 L469.33 228.82 L478.67 228.44 L488.00 228.03 L497.33 227.60 L506.67 227.14 L516.00 226.66 L525.33 226.15 L534.67 225.62 L544.00 225.06 L553.33 224.47 L562.67 223.86 L572.00 223.22 L581.33 222.54 L590.67 221.84 L600.00 221.11 L609.33 220.34 L618.67 219.54 L628.00 218.70 L637.33 217.84 L646.67 216.93 L656.00 215.99 L665.33 215.02 L674.67 214.01 L684.00 212.97 L693.33 211.89 L702.67 210.78 L712.00 209.64 L721.33 208.46 L730.67 207.26 L740.00 206.03 L749.33 204.78 L758.67 203.51 L768.00 202.22 L777.33 200.92 L786.67 199.61 L796.00 198.29 L805.33 196.97 L814.67 195.65 L824.00 194.35 L833.33 193.06 L842.67 191.78 L852.00 190.54 L861.33 189.32 L870.67 188.14 L880.00 187.00 L889.33 185.91 L898.67 184.88 L908.00 183.91 L917.33 183.00 L926.67 182.16 L936.00 181.41 L945.33 180.73 L954.67 180.14 L964.00 179.65 L973.33 179.25 L982.67 178.94 L992.00 178.75 L1001.33 178.66 L1010.67 178.67 L1020.00 178.80 L1029.33 179.04 L1038.67 179.40 L1048.00 179.86 L1057.33 180.44 L1066.67 181.14 L1076.00 181.94 L1085.33 182.86 L1094.67 183.88 L1104.00 185.00 L1113.33 186.22 L1122.67 187.54 L1132.00 188.95 L1141.33 190.44 L1150.67 192.02 L1160.00 193.66"></path><path d="M40.00 217.51 L49.33 219.36 L58.67 221.19 L68.00 223.00 L77.33 224.78 L86.67 226.52 L96.00 228.22 L105.33 229.88 L114.67 231.48 L124.00 233.02 L133.33 234.50 L142.67 235.91 L152.00 237.25 L161.33 238.51 L170.67 239.70 L180.00 240.81 L189.33 241.84 L198.67 242.78 L208.00 243.64 L217.33 244.42 L226.67 245.12 L236.00 245.73 L245.33 246.26 L254.67 246.71 L264.00 247.09 L273.33 247.38 L282.67 247.60 L292.00 247.75 L301.33 247.83 L310.67 247.85 L320.00 247.80 L329.33 247.69 L338.67 247.52 L348.00 247.30 L357.33 247.03 L366.67 246.71 L376.00 246.35 L385.33 245.94 L394.67 245.50 L404.00 245.03 L413.33 244.52 L422.67 243.99 L432.00 243.42 L441.33 242.84 L450.67 242.22 L460.00 241.59 L469.33 240.94 L478.67 240.27 L488.00 239.58 L497.33 238.88 L506.67 238.16 L516.00 237.42 L525.33 236.67 L534.67 235.90 L544.00 235.12 L553.33 234.32 L562.67 233.50 L572.00 232.67 L581.33 231.82 L590.67 230.95 L600.00 230.07 L609.33 229.16 L618.67 228.24 L628.00 227.29 L637.33 226.33 L646.67 225.34 L656.00 224.33 L665.33 223.31 L674.67 222.26 L684.00 221.20 L693.33 220.11 L702.67 219.01 L712.00 217.89 L721.33 216.76 L730.67 215.62 L740.00 214.47 L749.33 213.31 L758.67 212.14 L768.00 210.98 L777.33 209.81 L786.67 208.65 L796.00 207.51 L805.33 206.38 L814.67 205.26 L824.00 204.17 L833.33 203.11 L842.67 202.09 L852.00 201.10 L861.33 200.16 L870.67 199.26 L880.00 198.42 L889.33 197.65 L898.67 196.93 L908.00 196.29 L917.33 195.72 L926.67 195.24 L936.00 194.84 L945.33 194.52 L954.67 194.30 L964.00 194.18 L973.33 194.16 L982.67 194.23 L992.00 194.42 L1001.33 194.71 L1010.67 195.10 L1020.00 195.61 L1029.33 196.22 L1038.67 196.95 L1048.00 197.78 L1057.33 198.72 L1066.67 199.76 L1076.00 200.90 L1085.33 202.14 L1094.67 203.48 L1104.00 204.91 L1113.33 206.42 L1122.67 208.01 L1132.00 209.68 L1141.33 211.42 L1150.67 213.22 L1160.00 215.07"></path><path d="M40.00 239.74 L49.33 241.62 L58.67 243.46 L68.00 245.26 L77.33 247.01 L86.67 248.70 L96.00 250.32 L105.33 251.88 L114.67 253.36 L124.00 254.77 L133.33 256.09 L142.67 257.33 L152.00 258.47 L161.33 259.53 L170.67 260.49 L180.00 261.36 L189.33 262.13 L198.67 262.81 L208.00 263.39 L217.33 263.88 L226.67 264.27 L236.00 264.57 L245.33 264.77 L254.67 264.90 L264.00 264.93 L273.33 264.88 L282.67 264.76 L292.00 264.55 L301.33 264.28 L310.67 263.94 L320.00 263.53 L329.33 263.07 L338.67 262.55 L348.00 261.97 L357.33 261.35 L366.67 260.69 L376.00 259.99 L385.33 259.25 L394.67 258.48 L404.00 257.68 L413.33 256.86 L422.67 256.01 L432.00 255.15 L441.33 254.27 L450.67 253.38 L460.00 252.48 L469.33 251.57 L478.67 250.65 L488.00 249.72 L497.33 248.79 L506.67 247.86 L516.00 246.92 L525.33 245.98 L534.67 245.04 L544.00 244.10 L553.33 243.15 L562.67 242.21 L572.00 241.26 L581.33 240.30 L590.67 239.35 L600.00 238.39 L609.33 237.42 L618.67 236.45 L628.00 235.48 L637.33 234.50 L646.67 233.52 L656.00 232.53 L665.33 231.53 L674.67 230.53 L684.00 229.53 L693.33 228.53 L702.67 227.52 L712.00 226.51 L721.33 225.51 L730.67 224.50 L740.00 223.50 L749.33 222.51 L758.67 221.53 L768.00 220.57 L777.33 219.61 L786.67 218.68 L796.00 217.78 L805.33 216.90 L814.67 216.05 L824.00 215.24 L833.33 214.47 L842.67 213.74 L852.00 213.07 L861.33 212.44 L870.67 211.88 L880.00 211.38 L889.33 210.95 L898.67 210.59 L908.00 210.30 L917.33 210.10 L926.67 209.98 L936.00 209.95 L945.33 210.01 L954.67 210.16 L964.00 210.41 L973.33 210.76 L982.67 211.21 L992.00 211.76 L1001.33 212.41 L1010.67 213.17 L1020.00 214.02 L1029.33 214.98 L1038.67 216.04 L1048.00 217.19 L1057.33 218.44 L1066.67 219.78 L1076.00 221.21 L1085.33 222.73 L1094.67 224.32 L1104.00 225.99 L1113.33 227.73 L1122.67 229.53 L1132.00 231.38 L1141.33 233.29 L1150.67 235.24 L1160.00 237.22"></path><path d="M40.00 262.16 L49.33 263.99 L58.67 265.75 L68.00 267.44 L77.33 269.07 L86.67 270.61 L96.00 272.07 L105.33 273.44 L114.67 274.72 L124.00 275.91 L133.33 276.99 L142.67 277.97 L152.00 278.84 L161.33 279.61 L170.67 280.27 L180.00 280.83 L189.33 281.27 L198.67 281.62 L208.00 281.85 L217.33 281.98 L226.67 282.02 L236.00 281.95 L245.33 281.79 L254.67 281.54 L264.00 281.20 L273.33 280.77 L282.67 280.27 L292.00 279.69 L301.33 279.05 L310.67 278.33 L320.00 277.56 L329.33 276.73 L338.67 275.85 L348.00 274.93 L357.33 273.97 L366.67 272.97 L376.00 271.94 L385.33 270.89 L394.67 269.81 L404.00 268.72 L413.33 267.62 L422.67 266.50 L432.00 265.38 L441.33 264.26 L450.67 263.14 L460.00 262.02 L469.33 260.90 L478.67 259.79 L488.00 258.69 L497.33 257.60 L506.67 256.52 L516.00 255.46 L525.33 254.41 L534.67 253.37 L544.00 252.34 L553.33 251.33 L562.67 250.33 L572.00 249.34 L581.33 248.37 L590.67 247.40 L600.00 246.45 L609.33 245.52 L618.67 244.59 L628.00 243.67 L637.33 242.76 L646.67 241.87 L656.00 240.98 L665.33 240.10 L674.67 239.24 L684.00 238.38 L693.33 237.54 L702.67 236.70 L712.00 235.88 L721.33 235.08 L730.67 234.29 L740.00 233.52 L749.33 232.77 L758.67 232.04 L768.00 231.33 L777.33 230.66 L786.67 230.01 L796.00 229.40 L805.33 228.82 L814.67 228.29 L824.00 227.80 L833.33 227.36 L842.67 226.97 L852.00 226.64 L861.33 226.37 L870.67 226.16 L880.00 226.01 L889.33 225.94 L898.67 225.95 L908.00 226.03 L917.33 226.19 L926.67 226.44 L936.00 226.77 L945.33 227.19 L954.67 227.70 L964.00 228.31 L973.33 229.00 L982.67 229.79 L992.00 230.67 L1001.33 231.65 L1010.67 232.72 L1020.00 233.88 L1029.33 235.13 L1038.67 236.47 L1048.00 237.89 L1057.33 239.39 L1066.67 240.96 L1076.00 242.61 L1085.33 244.33 L1094.67 246.10 L1104.00 247.94 L1113.33 249.82 L1122.67 251.74 L1132.00 253.70 L1141.33 255.68 L1150.67 257.69 L1160.00 259.71"></path><path d="M40.00 284.37 L49.33 286.04 L58.67 287.63 L68.00 289.13 L77.33 290.54 L86.67 291.85 L96.00 293.06 L105.33 294.16 L114.67 295.16 L124.00 296.04 L133.33 296.80 L142.67 297.45 L152.00 297.99 L161.33 298.40 L170.67 298.70 L180.00 298.88 L189.33 298.95 L198.67 298.91 L208.00 298.76 L217.33 298.50 L226.67 298.13 L236.00 297.67 L245.33 297.11 L254.67 296.46 L264.00 295.73 L273.33 294.92 L282.67 294.03 L292.00 293.07 L301.33 292.05 L310.67 290.97 L320.00 289.84 L329.33 288.67 L338.67 287.45 L348.00 286.21 L357.33 284.93 L366.67 283.63 L376.00 282.31 L385.33 280.99 L394.67 279.65 L404.00 278.32 L413.33 276.98 L422.67 275.65 L432.00 274.33 L441.33 273.03 L450.67 271.74 L460.00 270.47 L469.33 269.22 L478.67 268.00 L488.00 266.80 L497.33 265.63 L506.67 264.49 L516.00 263.38 L525.33 262.29 L534.67 261.24 L544.00 260.22 L553.33 259.22 L562.67 258.26 L572.00 257.32 L581.33 256.41 L590.67 255.54 L600.00 254.68 L609.33 253.86 L618.67 253.06 L628.00 252.28 L637.33 251.53 L646.67 250.81 L656.00 250.10 L665.33 249.42 L674.67 248.77 L684.00 248.13 L693.33 247.52 L702.67 246.93 L712.00 246.37 L721.33 245.83 L730.67 245.32 L740.00 244.83 L749.33 244.38 L758.67 243.95 L768.00 243.56 L777.33 243.20 L786.67 242.88 L796.00 242.61 L805.33 242.37 L814.67 242.18 L824.00 242.04 L833.33 241.95 L842.67 241.91 L852.00 241.93 L861.33 242.02 L870.67 242.17 L880.00 242.38 L889.33 242.67 L898.67 243.02 L908.00 243.45 L917.33 243.96 L926.67 244.55 L936.00 245.22 L945.33 245.97 L954.67 246.80 L964.00 247.71 L973.33 248.71 L982.67 249.79 L992.00 250.96 L1001.33 252.20 L1010.67 253.53 L1020.00 254.93 L1029.33 256.40 L1038.67 257.94 L1048.00 259.55 L1057.33 261.23 L1066.67 262.96 L1076.00 264.75 L1085.33 266.58 L1094.67 268.45 L1104.00 270.36 L1113.33 272.29 L1122.67 274.25 L1132.00 276.22 L1141.33 278.19 L1150.67 280.16 L1160.00 282.13"></path><path d="M40.00 305.93 L49.33 307.36 L58.67 308.69 L68.00 309.91 L77.33 311.03 L86.67 312.03 L96.00 312.91 L105.33 313.67 L114.67 314.31 L124.00 314.82 L133.33 315.21 L142.67 315.47 L152.00 315.61 L161.33 315.62 L170.67 315.52 L180.00 315.29 L189.33 314.94 L198.67 314.48 L208.00 313.91 L217.33 313.24 L226.67 312.46 L236.00 311.59 L245.33 310.63 L254.67 309.59 L264.00 308.46 L273.33 307.27 L282.67 306.01 L292.00 304.69 L301.33 303.32 L310.67 301.91 L320.00 300.45 L329.33 298.97 L338.67 297.46 L348.00 295.93 L357.33 294.39 L366.67 292.84 L376.00 291.30 L385.33 289.76 L394.67 288.23 L404.00 286.71 L413.33 285.22 L422.67 283.75 L432.00 282.31 L441.33 280.90 L450.67 279.53 L460.00 278.19 L469.33 276.90 L478.67 275.64 L488.00 274.43 L497.33 273.27 L506.67 272.15 L516.00 271.08 L525.33 270.06 L534.67 269.08 L544.00 268.15 L553.33 267.26 L562.67 266.42 L572.00 265.63 L581.33 264.87 L590.67 264.16 L600.00 263.50 L609.33 262.87 L618.67 262.28 L628.00 261.72 L637.33 261.21 L646.67 260.72 L656.00 260.28 L665.33 259.86 L674.67 259.48 L684.00 259.13 L693.33 258.82 L702.67 258.53 L712.00 258.28 L721.33 258.05 L730.67 257.86 L740.00 257.71 L749.33 257.59 L758.67 257.50 L768.00 257.45 L777.33 257.44 L786.67 257.47 L796.00 257.54 L805.33 257.65 L814.67 257.81 L824.00 258.02 L833.33 258.28 L842.67 258.60 L852.00 258.97 L861.33 259.39 L870.67 259.88 L880.00 260.43 L889.33 261.04 L898.67 261.72 L908.00 262.46 L917.33 263.28 L926.67 264.16 L936.00 265.12 L945.33 266.14 L954.67 267.24 L964.00 268.41 L973.33 269.64 L982.67 270.95 L992.00 272.32 L1001.33 273.76 L1010.67 275.26 L1020.00 276.82 L1029.33 278.44 L1038.67 280.11 L1048.00 281.83 L1057.33 283.59 L1066.67 285.39 L1076.00 287.22 L1085.33 289.07 L1094.67 290.95 L1104.00 292.84 L1113.33 294.74 L1122.67 296.63 L1132.00 298.52 L1141.33 300.39 L1150.67 302.23 L1160.00 304.05"></path><path d="M40.00 326.44 L49.33 327.55 L58.67 328.55 L68.00 329.42 L77.33 330.17 L86.67 330.79 L96.00 331.29 L105.33 331.65 L114.67 331.88 L124.00 331.98 L133.33 331.94 L142.67 331.78 L152.00 331.49 L161.33 331.07 L170.67 330.53 L180.00 329.87 L189.33 329.10 L198.67 328.22 L208.00 327.23 L217.33 326.14 L226.67 324.96 L236.00 323.69 L245.33 322.35 L254.67 320.93 L264.00 319.44 L273.33 317.90 L282.67 316.30 L292.00 314.66 L301.33 312.99 L310.67 311.28 L320.00 309.56 L329.33 307.82 L338.67 306.08 L348.00 304.33 L357.33 302.60 L366.67 300.88 L376.00 299.17 L385.33 297.50 L394.67 295.85 L404.00 294.24 L413.33 292.67 L422.67 291.15 L432.00 289.68 L441.33 288.25 L450.67 286.89 L460.00 285.58 L469.33 284.32 L478.67 283.14 L488.00 282.01 L497.33 280.94 L506.67 279.94 L516.00 279.00 L525.33 278.13 L534.67 277.32 L544.00 276.57 L553.33 275.88 L562.67 275.25 L572.00 274.68 L581.33 274.16 L590.67 273.70 L600.00 273.29 L609.33 272.93 L618.67 272.62 L628.00 272.36 L637.33 272.14 L646.67 271.97 L656.00 271.83 L665.33 271.74 L674.67 271.68 L684.00 271.67 L693.33 271.69 L702.67 271.74 L712.00 271.83 L721.33 271.96 L730.67 272.12 L740.00 272.31 L749.33 272.54 L758.67 272.81 L768.00 273.11 L777.33 273.45 L786.67 273.83 L796.00 274.24 L805.33 274.70 L814.67 275.20 L824.00 275.74 L833.33 276.33 L842.67 276.96 L852.00 277.65 L861.33 278.38 L870.67 279.16 L880.00 280.00 L889.33 280.89 L898.67 281.84 L908.00 282.85 L917.33 283.91 L926.67 285.02 L936.00 286.20 L945.33 287.43 L954.67 288.72 L964.00 290.06 L973.33 291.46 L982.67 292.91 L992.00 294.41 L1001.33 295.96 L1010.67 297.55 L1020.00 299.18 L1029.33 300.85 L1038.67 302.55 L1048.00 304.29 L1057.33 306.04 L1066.67 307.81 L1076.00 309.59 L1085.33 311.38 L1094.67 313.17 L1104.00 314.95 L1113.33 316.71 L1122.67 318.45 L1132.00 320.17 L1141.33 321.85 L1150.67 323.48 L1160.00 325.06"></path><path d="M40.00 345.56 L49.33 346.29 L58.67 346.89 L68.00 347.35 L77.33 347.69 L86.67 347.88 L96.00 347.94 L105.33 347.87 L114.67 347.66 L124.00 347.31 L133.33 346.84 L142.67 346.23 L152.00 345.50 L161.33 344.64 L170.67 343.67 L180.00 342.59 L189.33 341.39 L198.67 340.10 L208.00 338.71 L217.33 337.24 L226.67 335.68 L236.00 334.05 L245.33 332.35 L254.67 330.60 L264.00 328.80 L273.33 326.96 L282.67 325.09 L292.00 323.19 L301.33 321.27 L310.67 319.35 L320.00 317.43 L329.33 315.51 L338.67 313.61 L348.00 311.74 L357.33 309.89 L366.67 308.08 L376.00 306.31 L385.33 304.59 L394.67 302.92 L404.00 301.30 L413.33 299.75 L422.67 298.27 L432.00 296.86 L441.33 295.52 L450.67 294.25 L460.00 293.06 L469.33 291.95 L478.67 290.92 L488.00 289.96 L497.33 289.09 L506.67 288.29 L516.00 287.58 L525.33 286.94 L534.67 286.38 L544.00 285.89 L553.33 285.48 L562.67 285.14 L572.00 284.86 L581.33 284.65 L590.67 284.51 L600.00 284.42 L609.33 284.39 L618.67 284.42 L628.00 284.50 L637.33 284.63 L646.67 284.80 L656.00 285.03 L665.33 285.29 L674.67 285.60 L684.00 285.94 L693.33 286.32 L702.67 286.73 L712.00 287.18 L721.33 287.66 L730.67 288.18 L740.00 288.72 L749.33 289.30 L758.67 289.91 L768.00 290.55 L777.33 291.22 L786.67 291.92 L796.00 292.65 L805.33 293.42 L814.67 294.22 L824.00 295.06 L833.33 295.93 L842.67 296.83 L852.00 297.78 L861.33 298.76 L870.67 299.79 L880.00 300.85 L889.33 301.96 L898.67 303.11 L908.00 304.30 L917.33 305.53 L926.67 306.80 L936.00 308.11 L945.33 309.47 L954.67 310.86 L964.00 312.30 L973.33 313.77 L982.67 315.27 L992.00 316.81 L1001.33 318.37 L1010.67 319.96 L1020.00 321.57 L1029.33 323.20 L1038.67 324.84 L1048.00 326.49 L1057.33 328.15 L1066.67 329.80 L1076.00 331.44 L1085.33 333.07 L1094.67 334.68 L1104.00 336.26 L1113.33 337.81 L1122.67 339.31 L1132.00 340.77 L1141.33 342.18 L1150.67 343.52 L1160.00 344.80"></path><path d="M40.00 363.00 L49.33 363.29 L58.67 363.46 L68.00 363.48 L77.33 363.36 L86.67 363.11 L96.00 362.72 L105.33 362.19 L114.67 361.53 L124.00 360.74 L133.33 359.82 L142.67 358.78 L152.00 357.61 L161.33 356.34 L170.67 354.95 L180.00 353.47 L189.33 351.89 L198.67 350.22 L208.00 348.48 L217.33 346.66 L226.67 344.78 L236.00 342.84 L245.33 340.86 L254.67 338.84 L264.00 336.80 L273.33 334.73 L282.67 332.65 L292.00 330.57 L301.33 328.50 L310.67 326.45 L320.00 324.41 L329.33 322.41 L338.67 320.45 L348.00 318.53 L357.33 316.66 L366.67 314.86 L376.00 313.12 L385.33 311.45 L394.67 309.85 L404.00 308.34 L413.33 306.90 L422.67 305.56 L432.00 304.30 L441.33 303.14 L450.67 302.07 L460.00 301.09 L469.33 300.21 L478.67 299.42 L488.00 298.73 L497.33 298.13 L506.67 297.63 L516.00 297.22 L525.33 296.89 L534.67 296.65 L544.00 296.50 L553.33 296.43 L562.67 296.43 L572.00 296.52 L581.33 296.67 L590.67 296.89 L600.00 297.17 L609.33 297.52 L618.67 297.92 L628.00 298.37 L637.33 298.88 L646.67 299.43 L656.00 300.03 L665.33 300.66 L674.67 301.34 L684.00 302.05 L693.33 302.79 L702.67 303.56 L712.00 304.36 L721.33 305.18 L730.67 306.03 L740.00 306.90 L749.33 307.80 L758.67 308.72 L768.00 309.66 L777.33 310.62 L786.67 311.60 L796.00 312.60 L805.33 313.63 L814.67 314.67 L824.00 315.74 L833.33 316.83 L842.67 317.95 L852.00 319.09 L861.33 320.25 L870.67 321.44 L880.00 322.65 L889.33 323.89 L898.67 325.15 L908.00 326.44 L917.33 327.75 L926.67 329.09 L936.00 330.46 L945.33 331.84 L954.67 333.25 L964.00 334.68 L973.33 336.13 L982.67 337.59 L992.00 339.07 L1001.33 340.55 L1010.67 342.05 L1020.00 343.54 L1029.33 345.04 L1038.67 346.53 L1048.00 348.01 L1057.33 349.47 L1066.67 350.92 L1076.00 352.34 L1085.33 353.72 L1094.67 355.07 L1104.00 356.38 L1113.33 357.64 L1122.67 358.84 L1132.00 359.98 L1141.33 361.05 L1150.67 362.05 L1160.00 362.96"></path><path d="M40.00 378.56 L49.33 378.40 L58.67 378.11 L68.00 377.68 L77.33 377.10 L86.67 376.40 L96.00 375.56 L105.33 374.59 L114.67 373.49 L124.00 372.27 L133.33 370.93 L142.67 369.48 L152.00 367.92 L161.33 366.26 L170.67 364.51 L180.00 362.68 L189.33 360.77 L198.67 358.79 L208.00 356.75 L217.33 354.66 L226.67 352.52 L236.00 350.36 L245.33 348.17 L254.67 345.97 L264.00 343.76 L273.33 341.55 L282.67 339.37 L292.00 337.20 L301.33 335.06 L310.67 332.97 L320.00 330.92 L329.33 328.93 L338.67 327.00 L348.00 325.15 L357.33 323.36 L366.67 321.67 L376.00 320.05 L385.33 318.54 L394.67 317.11 L404.00 315.79 L413.33 314.57 L422.67 313.46 L432.00 312.46 L441.33 311.56 L450.67 310.77 L460.00 310.10 L469.33 309.53 L478.67 309.07 L488.00 308.72 L497.33 308.47 L506.67 308.32 L516.00 308.28 L525.33 308.33 L534.67 308.47 L544.00 308.71 L553.33 309.02 L562.67 309.42 L572.00 309.90 L581.33 310.45 L590.67 311.07 L600.00 311.75 L609.33 312.49 L618.67 313.28 L628.00 314.12 L637.33 315.01 L646.67 315.94 L656.00 316.90 L665.33 317.90 L674.67 318.93 L684.00 319.99 L693.33 321.07 L702.67 322.16 L712.00 323.28 L721.33 324.41 L730.67 325.56 L740.00 326.71 L749.33 327.88 L758.67 329.05 L768.00 330.24 L777.33 331.43 L786.67 332.63 L796.00 333.83 L805.33 335.04 L814.67 336.26 L824.00 337.48 L833.33 338.71 L842.67 339.95 L852.00 341.20 L861.33 342.45 L870.67 343.71 L880.00 344.98 L889.33 346.26 L898.67 347.55 L908.00 348.85 L917.33 350.15 L926.67 351.46 L936.00 352.78 L945.33 354.10 L954.67 355.43 L964.00 356.76 L973.33 358.09 L982.67 359.42 L992.00 360.75 L1001.33 362.06 L1010.67 363.37 L1020.00 364.67 L1029.33 365.94 L1038.67 367.20 L1048.00 368.43 L1057.33 369.63 L1066.67 370.79 L1076.00 371.91 L1085.33 372.99 L1094.67 374.02 L1104.00 374.99 L1113.33 375.90 L1122.67 376.74 L1132.00 377.51 L1141.33 378.20 L1150.67 378.81 L1160.00 379.33"></path><path d="M40.00 392.16 L49.33 391.55 L58.67 390.80 L68.00 389.92 L77.33 388.91 L86.67 387.78 L96.00 386.51 L105.33 385.13 L114.67 383.63 L124.00 382.03 L133.33 380.32 L142.67 378.51 L152.00 376.62 L161.33 374.64 L170.67 372.59 L180.00 370.48 L189.33 368.31 L198.67 366.09 L208.00 363.84 L217.33 361.56 L226.67 359.26 L236.00 356.96 L245.33 354.65 L254.67 352.36 L264.00 350.09 L273.33 347.85 L282.67 345.65 L292.00 343.50 L301.33 341.40 L310.67 339.37 L320.00 337.41 L329.33 335.54 L338.67 333.75 L348.00 332.05 L357.33 330.46 L366.67 328.97 L376.00 327.58 L385.33 326.31 L394.67 325.16 L404.00 324.12 L413.33 323.21 L422.67 322.42 L432.00 321.75 L441.33 321.20 L450.67 320.77 L460.00 320.47 L469.33 320.28 L478.67 320.22 L488.00 320.26 L497.33 320.42 L506.67 320.69 L516.00 321.05 L525.33 321.52 L534.67 322.09 L544.00 322.74 L553.33 323.48 L562.67 324.29 L572.00 325.18 L581.33 326.14 L590.67 327.16 L600.00 328.24 L609.33 329.37 L618.67 330.55 L628.00 331.76 L637.33 333.02 L646.67 334.30 L656.00 335.61 L665.33 336.94 L674.67 338.29 L684.00 339.65 L693.33 341.02 L702.67 342.39 L712.00 343.77 L721.33 345.15 L730.67 346.53 L740.00 347.90 L749.33 349.27 L758.67 350.63 L768.00 351.98 L777.33 353.33 L786.67 354.66 L796.00 355.98 L805.33 357.29 L814.67 358.59 L824.00 359.89 L833.33 361.16 L842.67 362.43 L852.00 363.69 L861.33 364.94 L870.67 366.19 L880.00 367.42 L889.33 368.64 L898.67 369.86 L908.00 371.06 L917.33 372.26 L926.67 373.45 L936.00 374.63 L945.33 375.79 L954.67 376.95 L964.00 378.09 L973.33 379.22 L982.67 380.33 L992.00 381.42 L1001.33 382.49 L1010.67 383.53 L1020.00 384.55 L1029.33 385.53 L1038.67 386.48 L1048.00 387.40 L1057.33 388.27 L1066.67 389.09 L1076.00 389.87 L1085.33 390.58 L1094.67 391.24 L1104.00 391.84 L1113.33 392.36 L1122.67 392.81 L1132.00 393.18 L1141.33 393.47 L1150.67 393.68 L1160.00 393.79"></path><path d="M40.00 402.86 L49.33 401.85 L58.67 400.72 L68.00 399.46 L77.33 398.10 L86.67 396.62 L96.00 395.04 L105.33 393.35 L114.67 391.57 L124.00 389.70 L133.33 387.75 L142.67 385.73 L152.00 383.64 L161.33 381.49 L170.67 379.29 L180.00 377.06 L189.33 374.79 L198.67 372.51 L208.00 370.21 L217.33 367.91 L226.67 365.62 L236.00 363.35 L245.33 361.11 L254.67 358.90 L264.00 356.74 L273.33 354.63 L282.67 352.59 L292.00 350.62 L301.33 348.73 L310.67 346.92 L320.00 345.21 L329.33 343.60 L338.67 342.10 L348.00 340.71 L357.33 339.44 L366.67 338.28 L376.00 337.25 L385.33 336.34 L394.67 335.57 L404.00 334.92 L413.33 334.40 L422.67 334.01 L432.00 333.75 L441.33 333.62 L450.67 333.62 L460.00 333.74 L469.33 333.98 L478.67 334.34 L488.00 334.81 L497.33 335.39 L506.67 336.08 L516.00 336.86 L525.33 337.74 L534.67 338.71 L544.00 339.76 L553.33 340.88 L562.67 342.08 L572.00 343.34 L581.33 344.65 L590.67 346.02 L600.00 347.43 L609.33 348.87 L618.67 350.36 L628.00 351.86 L637.33 353.39 L646.67 354.93 L656.00 356.48 L665.33 358.04 L674.67 359.60 L684.00 361.15 L693.33 362.70 L702.67 364.24 L712.00 365.76 L721.33 367.26 L730.67 368.75 L740.00 370.21 L749.33 371.65 L758.67 373.06 L768.00 374.45 L777.33 375.81 L786.67 377.14 L796.00 378.45 L805.33 379.72 L814.67 380.97 L824.00 382.19 L833.33 383.38 L842.67 384.55 L852.00 385.69 L861.33 386.80 L870.67 387.89 L880.00 388.96 L889.33 390.00 L898.67 391.01 L908.00 392.01 L917.33 392.97 L926.67 393.92 L936.00 394.84 L945.33 395.74 L954.67 396.61 L964.00 397.46 L973.33 398.28 L982.67 399.07 L992.00 399.83 L1001.33 400.56 L1010.67 401.26 L1020.00 401.92 L1029.33 402.54 L1038.67 403.12 L1048.00 403.65 L1057.33 404.14 L1066.67 404.57 L1076.00 404.95 L1085.33 405.27 L1094.67 405.53 L1104.00 405.72 L1113.33 405.84 L1122.67 405.89 L1132.00 405.86 L1141.33 405.75 L1150.67 405.56 L1160.00 405.29"></path><path d="M40.00 412.08 L49.33 410.74 L58.67 409.30 L68.00 407.75 L77.33 406.11 L86.67 404.38 L96.00 402.56 L105.33 400.66 L114.67 398.69 L124.00 396.65 L133.33 394.56 L142.67 392.42 L152.00 390.24 L161.33 388.02 L170.67 385.78 L180.00 383.53 L189.33 381.27 L198.67 379.02 L208.00 376.78 L217.33 374.57 L226.67 372.39 L236.00 370.25 L245.33 368.16 L254.67 366.14 L264.00 364.18 L273.33 362.30 L282.67 360.51 L292.00 358.81 L301.33 357.21 L310.67 355.71 L320.00 354.32 L329.33 353.06 L338.67 351.91 L348.00 350.89 L357.33 350.00 L366.67 349.23 L376.00 348.61 L385.33 348.11 L394.67 347.75 L404.00 347.53 L413.33 347.44 L422.67 347.49 L432.00 347.66 L441.33 347.97 L450.67 348.40 L460.00 348.95 L469.33 349.61 L478.67 350.40 L488.00 351.28 L497.33 352.27 L506.67 353.36 L516.00 354.54 L525.33 355.80 L534.67 357.13 L544.00 358.54 L553.33 360.01 L562.67 361.53 L572.00 363.11 L581.33 364.72 L590.67 366.37 L600.00 368.05 L609.33 369.75 L618.67 371.46 L628.00 373.18 L637.33 374.91 L646.67 376.63 L656.00 378.34 L665.33 380.04 L674.67 381.72 L684.00 383.38 L693.33 385.01 L702.67 386.61 L712.00 388.18 L721.33 389.72 L730.67 391.21 L740.00 392.66 L749.33 394.08 L758.67 395.45 L768.00 396.77 L777.33 398.06 L786.67 399.29 L796.00 400.49 L805.33 401.63 L814.67 402.74 L824.00 403.80 L833.33 404.82 L842.67 405.79 L852.00 406.73 L861.33 407.62 L870.67 408.48 L880.00 409.30 L889.33 410.08 L898.67 410.83 L908.00 411.54 L917.33 412.22 L926.67 412.87 L936.00 413.48 L945.33 414.05 L954.67 414.60 L964.00 415.11 L973.33 415.58 L982.67 416.02 L992.00 416.42 L1001.33 416.79 L1010.67 417.12 L1020.00 417.40 L1029.33 417.65 L1038.67 417.85 L1048.00 418.00 L1057.33 418.10 L1066.67 418.16 L1076.00 418.15 L1085.33 418.09 L1094.67 417.98 L1104.00 417.79 L1113.33 417.55 L1122.67 417.23 L1132.00 416.85 L1141.33 416.39 L1150.67 415.86 L1160.00 415.25"></path><path d="M40.00 420.19 L49.33 418.61 L58.67 416.94 L68.00 415.19 L77.33 413.37 L86.67 411.48 L96.00 409.52 L105.33 407.51 L114.67 405.45 L124.00 403.35 L133.33 401.21 L142.67 399.05 L152.00 396.88 L161.33 394.70 L170.67 392.52 L180.00 390.35 L189.33 388.20 L198.67 386.08 L208.00 384.00 L217.33 381.96 L226.67 379.99 L236.00 378.07 L245.33 376.23 L254.67 374.48 L264.00 372.81 L273.33 371.24 L282.67 369.77 L292.00 368.41 L301.33 367.16 L310.67 366.03 L320.00 365.03 L329.33 364.16 L338.67 363.42 L348.00 362.81 L357.33 362.34 L366.67 362.01 L376.00 361.81 L385.33 361.76 L394.67 361.84 L404.00 362.05 L413.33 362.40 L422.67 362.88 L432.00 363.49 L441.33 364.22 L450.67 365.07 L460.00 366.03 L469.33 367.11 L478.67 368.28 L488.00 369.56 L497.33 370.92 L506.67 372.36 L516.00 373.88 L525.33 375.47 L534.67 377.12 L544.00 378.83 L553.33 380.58 L562.67 382.36 L572.00 384.18 L581.33 386.02 L590.67 387.88 L600.00 389.75 L609.33 391.61 L618.67 393.48 L628.00 395.33 L637.33 397.16 L646.67 398.97 L656.00 400.75 L665.33 402.50 L674.67 404.21 L684.00 405.87 L693.33 407.50 L702.67 409.07 L712.00 410.59 L721.33 412.06 L730.67 413.47 L740.00 414.82 L749.33 416.11 L758.67 417.35 L768.00 418.52 L777.33 419.63 L786.67 420.69 L796.00 421.68 L805.33 422.62 L814.67 423.50 L824.00 424.32 L833.33 425.09 L842.67 425.80 L852.00 426.46 L861.33 427.08 L870.67 427.64 L880.00 428.16 L889.33 428.63 L898.67 429.05 L908.00 429.44 L917.33 429.78 L926.67 430.09 L936.00 430.35 L945.33 430.58 L954.67 430.77 L964.00 430.92 L973.33 431.03 L982.67 431.11 L992.00 431.15 L1001.33 431.15 L1010.67 431.11 L1020.00 431.03 L1029.33 430.91 L1038.67 430.75 L1048.00 430.55 L1057.33 430.30 L1066.67 430.00 L1076.00 429.65 L1085.33 429.26 L1094.67 428.81 L1104.00 428.30 L1113.33 427.74 L1122.67 427.12 L1132.00 426.44 L1141.33 425.70 L1150.67 424.90 L1160.00 424.03"></path><path d="M40.00 427.62 L49.33 425.88 L58.67 424.09 L68.00 422.23 L77.33 420.33 L86.67 418.37 L96.00 416.38 L105.33 414.35 L114.67 412.30 L124.00 410.23 L133.33 408.16 L142.67 406.08 L152.00 404.01 L161.33 401.96 L170.67 399.93 L180.00 397.94 L189.33 395.99 L198.67 394.09 L208.00 392.25 L217.33 390.48 L226.67 388.79 L236.00 387.18 L245.33 385.66 L254.67 384.24 L264.00 382.92 L273.33 381.72 L282.67 380.63 L292.00 379.66 L301.33 378.82 L310.67 378.11 L320.00 377.52 L329.33 377.08 L338.67 376.77 L348.00 376.60 L357.33 376.57 L366.67 376.68 L376.00 376.92 L385.33 377.30 L394.67 377.81 L404.00 378.46 L413.33 379.23 L422.67 380.13 L432.00 381.14 L441.33 382.27 L450.67 383.51 L460.00 384.84 L469.33 386.28 L478.67 387.80 L488.00 389.40 L497.33 391.08 L506.67 392.82 L516.00 394.62 L525.33 396.47 L534.67 398.36 L544.00 400.29 L553.33 402.24 L562.67 404.21 L572.00 406.19 L581.33 408.17 L590.67 410.15 L600.00 412.11 L609.33 414.05 L618.67 415.97 L628.00 417.86 L637.33 419.70 L646.67 421.51 L656.00 423.26 L665.33 424.96 L674.67 426.60 L684.00 428.18 L693.33 429.70 L702.67 431.15 L712.00 432.53 L721.33 433.84 L730.67 435.08 L740.00 436.24 L749.33 437.33 L758.67 438.34 L768.00 439.29 L777.33 440.15 L786.67 440.95 L796.00 441.67 L805.33 442.33 L814.67 442.92 L824.00 443.44 L833.33 443.90 L842.67 444.30 L852.00 444.64 L861.33 444.92 L870.67 445.15 L880.00 445.32 L889.33 445.45 L898.67 445.52 L908.00 445.56 L917.33 445.55 L926.67 445.49 L936.00 445.40 L945.33 445.27 L954.67 445.10 L964.00 444.90 L973.33 444.66 L982.67 444.38 L992.00 444.08 L1001.33 443.73 L1010.67 443.36 L1020.00 442.94 L1029.33 442.50 L1038.67 442.01 L1048.00 441.50 L1057.33 440.94 L1066.67 440.34 L1076.00 439.71 L1085.33 439.03 L1094.67 438.32 L1104.00 437.56 L1113.33 436.75 L1122.67 435.90 L1132.00 435.01 L1141.33 434.06 L1150.67 433.07 L1160.00 432.03"></path><path d="M40.00 434.80 L49.33 433.01 L58.67 431.18 L68.00 429.32 L77.33 427.43 L86.67 425.51 L96.00 423.58 L105.33 421.63 L114.67 419.69 L124.00 417.75 L133.33 415.82 L142.67 413.92 L152.00 412.04 L161.33 410.21 L170.67 408.42 L180.00 406.68 L189.33 405.01 L198.67 403.41 L208.00 401.88 L217.33 400.44 L226.67 399.09 L236.00 397.84 L245.33 396.70 L254.67 395.66 L264.00 394.74 L273.33 393.94 L282.67 393.27 L292.00 392.72 L301.33 392.31 L310.67 392.03 L320.00 391.88 L329.33 391.87 L338.67 392.00 L348.00 392.27 L357.33 392.67 L366.67 393.20 L376.00 393.87 L385.33 394.66 L394.67 395.58 L404.00 396.63 L413.33 397.79 L422.67 399.05 L432.00 400.43 L441.33 401.90 L450.67 403.47 L460.00 405.12 L469.33 406.85 L478.67 408.65 L488.00 410.51 L497.33 412.43 L506.67 414.39 L516.00 416.39 L525.33 418.42 L534.67 420.47 L544.00 422.53 L553.33 424.60 L562.67 426.66 L572.00 428.70 L581.33 430.73 L590.67 432.73 L600.00 434.70 L609.33 436.63 L618.67 438.50 L628.00 440.33 L637.33 442.09 L646.67 443.80 L656.00 445.43 L665.33 446.99 L674.67 448.48 L684.00 449.88 L693.33 451.21 L702.67 452.45 L712.00 453.61 L721.33 454.68 L730.67 455.66 L740.00 456.56 L749.33 457.37 L758.67 458.10 L768.00 458.74 L777.33 459.30 L786.67 459.78 L796.00 460.18 L805.33 460.51 L814.67 460.76 L824.00 460.94 L833.33 461.05 L842.67 461.10 L852.00 461.09 L861.33 461.01 L870.67 460.88 L880.00 460.70 L889.33 460.47 L898.67 460.19 L908.00 459.87 L917.33 459.51 L926.67 459.11 L936.00 458.67 L945.33 458.20 L954.67 457.69 L964.00 457.16 L973.33 456.60 L982.67 456.01 L992.00 455.39 L1001.33 454.74 L1010.67 454.07 L1020.00 453.38 L1029.33 452.66 L1038.67 451.91 L1048.00 451.14 L1057.33 450.34 L1066.67 449.52 L1076.00 448.67 L1085.33 447.79 L1094.67 446.88 L1104.00 445.94 L1113.33 444.98 L1122.67 443.98 L1132.00 442.95 L1141.33 441.89 L1150.67 440.80 L1160.00 439.68"></path><path d="M40.00 442.18 L49.33 440.43 L58.67 438.67 L68.00 436.89 L77.33 435.10 L86.67 433.31 L96.00 431.53 L105.33 429.75 L114.67 428.00 L124.00 426.27 L133.33 424.58 L142.67 422.92 L152.00 421.32 L161.33 419.77 L170.67 418.28 L180.00 416.87 L189.33 415.53 L198.67 414.28 L208.00 413.11 L217.33 412.05 L226.67 411.09 L236.00 410.24 L245.33 409.50 L254.67 408.87 L264.00 408.37 L273.33 408.00 L282.67 407.75 L292.00 407.64 L301.33 407.65 L310.67 407.80 L320.00 408.08 L329.33 408.49 L338.67 409.04 L348.00 409.71 L357.33 410.52 L366.67 411.45 L376.00 412.50 L385.33 413.66 L394.67 414.94 L404.00 416.33 L413.33 417.82 L422.67 419.40 L432.00 421.07 L441.33 422.82 L450.67 424.65 L460.00 426.54 L469.33 428.49 L478.67 430.48 L488.00 432.52 L497.33 434.59 L506.67 436.69 L516.00 438.80 L525.33 440.91 L534.67 443.03 L544.00 445.13 L553.33 447.21 L562.67 449.27 L572.00 451.29 L581.33 453.27 L590.67 455.20 L600.00 457.08 L609.33 458.89 L618.67 460.64 L628.00 462.31 L637.33 463.90 L646.67 465.42 L656.00 466.84 L665.33 468.18 L674.67 469.43 L684.00 470.58 L693.33 471.64 L702.67 472.60 L712.00 473.47 L721.33 474.23 L730.67 474.91 L740.00 475.48 L749.33 475.96 L758.67 476.35 L768.00 476.65 L777.33 476.86 L786.67 476.98 L796.00 477.03 L805.33 476.99 L814.67 476.88 L824.00 476.70 L833.33 476.45 L842.67 476.13 L852.00 475.76 L861.33 475.33 L870.67 474.84 L880.00 474.31 L889.33 473.73 L898.67 473.12 L908.00 472.46 L917.33 471.77 L926.67 471.05 L936.00 470.30 L945.33 469.53 L954.67 468.73 L964.00 467.91 L973.33 467.07 L982.67 466.22 L992.00 465.34 L1001.33 464.46 L1010.67 463.56 L1020.00 462.65 L1029.33 461.72 L1038.67 460.79 L1048.00 459.84 L1057.33 458.88 L1066.67 457.90 L1076.00 456.92 L1085.33 455.92 L1094.67 454.91 L1104.00 453.88 L1113.33 452.84 L1122.67 451.79 L1132.00 450.72 L1141.33 449.63 L1150.67 448.53 L1160.00 447.42"></path><path d="M40.00 450.17 L49.33 448.55 L58.67 446.94 L68.00 445.33 L77.33 443.73 L86.67 442.14 L96.00 440.59 L105.33 439.06 L114.67 437.56 L124.00 436.11 L133.33 434.71 L142.67 433.37 L152.00 432.09 L161.33 430.88 L170.67 429.75 L180.00 428.69 L189.33 427.73 L198.67 426.86 L208.00 426.09 L217.33 425.43 L226.67 424.88 L236.00 424.43 L245.33 424.11 L254.67 423.91 L264.00 423.82 L273.33 423.87 L282.67 424.04 L292.00 424.33 L301.33 424.76 L310.67 425.31 L320.00 425.99 L329.33 426.79 L338.67 427.71 L348.00 428.75 L357.33 429.91 L366.67 431.18 L376.00 432.55 L385.33 434.03 L394.67 435.60 L404.00 437.26 L413.33 439.01 L422.67 440.83 L432.00 442.71 L441.33 444.66 L450.67 446.66 L460.00 448.71 L469.33 450.78 L478.67 452.89 L488.00 455.01 L497.33 457.15 L506.67 459.28 L516.00 461.40 L525.33 463.51 L534.67 465.59 L544.00 467.64 L553.33 469.65 L562.67 471.61 L572.00 473.52 L581.33 475.36 L590.67 477.13 L600.00 478.82 L609.33 480.44 L618.67 481.97 L628.00 483.41 L637.33 484.75 L646.67 486.00 L656.00 487.15 L665.33 488.19 L674.67 489.14 L684.00 489.97 L693.33 490.70 L702.67 491.33 L712.00 491.85 L721.33 492.27 L730.67 492.58 L740.00 492.79 L749.33 492.91 L758.67 492.93 L768.00 492.86 L777.33 492.69 L786.67 492.45 L796.00 492.12 L805.33 491.72 L814.67 491.24 L824.00 490.69 L833.33 490.09 L842.67 489.42 L852.00 488.70 L861.33 487.93 L870.67 487.12 L880.00 486.26 L889.33 485.37 L898.67 484.45 L908.00 483.50 L917.33 482.53 L926.67 481.54 L936.00 480.53 L945.33 479.51 L954.67 478.47 L964.00 477.43 L973.33 476.39 L982.67 475.34 L992.00 474.28 L1001.33 473.23 L1010.67 472.18 L1020.00 471.13 L1029.33 470.08 L1038.67 469.03 L1048.00 467.99 L1057.33 466.95 L1066.67 465.91 L1076.00 464.88 L1085.33 463.85 L1094.67 462.82 L1104.00 461.80 L1113.33 460.77 L1122.67 459.75 L1132.00 458.73 L1141.33 457.71 L1150.67 456.69 L1160.00 455.67"></path><path d="M40.00 459.14 L49.33 457.73 L58.67 456.33 L68.00 454.96 L77.33 453.62 L86.67 452.30 L96.00 451.03 L105.33 449.80 L114.67 448.62 L124.00 447.50 L133.33 446.44 L142.67 445.45 L152.00 444.53 L161.33 443.69 L170.67 442.93 L180.00 442.27 L189.33 441.70 L198.67 441.23 L208.00 440.86 L217.33 440.60 L226.67 440.45 L236.00 440.41 L245.33 440.49 L254.67 440.68 L264.00 441.00 L273.33 441.43 L282.67 441.99 L292.00 442.66 L301.33 443.45 L310.67 444.36 L320.00 445.38 L329.33 446.51 L338.67 447.75 L348.00 449.10 L357.33 450.54 L366.67 452.08 L376.00 453.71 L385.33 455.42 L394.67 457.21 L404.00 459.06 L413.33 460.98 L422.67 462.95 L432.00 464.97 L441.33 467.02 L450.67 469.11 L460.00 471.21 L469.33 473.33 L478.67 475.45 L488.00 477.56 L497.33 479.66 L506.67 481.74 L516.00 483.79 L525.33 485.79 L534.67 487.75 L544.00 489.66 L553.33 491.51 L562.67 493.28 L572.00 494.98 L581.33 496.60 L590.67 498.13 L600.00 499.57 L609.33 500.91 L618.67 502.16 L628.00 503.29 L637.33 504.33 L646.67 505.25 L656.00 506.06 L665.33 506.76 L674.67 507.35 L684.00 507.82 L693.33 508.19 L702.67 508.44 L712.00 508.58 L721.33 508.62 L730.67 508.56 L740.00 508.39 L749.33 508.12 L758.67 507.77 L768.00 507.32 L777.33 506.78 L786.67 506.17 L796.00 505.48 L805.33 504.73 L814.67 503.90 L824.00 503.02 L833.33 502.08 L842.67 501.10 L852.00 500.07 L861.33 499.00 L870.67 497.90 L880.00 496.77 L889.33 495.62 L898.67 494.45 L908.00 493.27 L917.33 492.07 L926.67 490.87 L936.00 489.67 L945.33 488.47 L954.67 487.27 L964.00 486.09 L973.33 484.91 L982.67 483.74 L992.00 482.59 L1001.33 481.45 L1010.67 480.32 L1020.00 479.22 L1029.33 478.13 L1038.67 477.06 L1048.00 476.01 L1057.33 474.98 L1066.67 473.97 L1076.00 472.98 L1085.33 472.00 L1094.67 471.05 L1104.00 470.11 L1113.33 469.18 L1122.67 468.28 L1132.00 467.39 L1141.33 466.51 L1150.67 465.65 L1160.00 464.80"></path><path d="M40.00 469.38 L49.33 468.23 L58.67 467.12 L68.00 466.04 L77.33 465.00 L86.67 464.00 L96.00 463.05 L105.33 462.16 L114.67 461.33 L124.00 460.56 L133.33 459.86 L142.67 459.24 L152.00 458.70 L161.33 458.24 L170.67 457.87 L180.00 457.59 L189.33 457.40 L198.67 457.32 L208.00 457.34 L217.33 457.46 L226.67 457.69 L236.00 458.03 L245.33 458.47 L254.67 459.03 L264.00 459.70 L273.33 460.48 L282.67 461.37 L292.00 462.36 L301.33 463.46 L310.67 464.66 L320.00 465.96 L329.33 467.36 L338.67 468.85 L348.00 470.42 L357.33 472.07 L366.67 473.80 L376.00 475.60 L385.33 477.46 L394.67 479.37 L404.00 481.33 L413.33 483.33 L422.67 485.36 L432.00 487.41 L441.33 489.48 L450.67 491.55 L460.00 493.63 L469.33 495.69 L478.67 497.73 L488.00 499.74 L497.33 501.72 L506.67 503.66 L516.00 505.54 L525.33 507.36 L534.67 509.12 L544.00 510.80 L553.33 512.40 L562.67 513.92 L572.00 515.34 L581.33 516.67 L590.67 517.90 L600.00 519.02 L609.33 520.03 L618.67 520.93 L628.00 521.72 L637.33 522.39 L646.67 522.94 L656.00 523.38 L665.33 523.70 L674.67 523.91 L684.00 524.00 L693.33 523.97 L702.67 523.84 L712.00 523.60 L721.33 523.25 L730.67 522.80 L740.00 522.26 L749.33 521.62 L758.67 520.90 L768.00 520.09 L777.33 519.21 L786.67 518.26 L796.00 517.24 L805.33 516.16 L814.67 515.03 L824.00 513.85 L833.33 512.63 L842.67 511.38 L852.00 510.09 L861.33 508.78 L870.67 507.46 L880.00 506.12 L889.33 504.77 L898.67 503.42 L908.00 502.07 L917.33 500.73 L926.67 499.40 L936.00 498.09 L945.33 496.79 L954.67 495.51 L964.00 494.26 L973.33 493.03 L982.67 491.83 L992.00 490.66 L1001.33 489.52 L1010.67 488.42 L1020.00 487.35 L1029.33 486.31 L1038.67 485.30 L1048.00 484.33 L1057.33 483.39 L1066.67 482.49 L1076.00 481.62 L1085.33 480.78 L1094.67 479.97 L1104.00 479.20 L1113.33 478.45 L1122.67 477.73 L1132.00 477.04 L1141.33 476.38 L1150.67 475.74 L1160.00 475.13"></path><path d="M40.00 481.10 L49.33 480.27 L58.67 479.47 L68.00 478.71 L77.33 478.00 L86.67 477.35 L96.00 476.75 L105.33 476.21 L114.67 475.74 L124.00 475.33 L133.33 475.00 L142.67 474.74 L152.00 474.56 L161.33 474.47 L170.67 474.47 L180.00 474.55 L189.33 474.73 L198.67 475.00 L208.00 475.37 L217.33 475.84 L226.67 476.40 L236.00 477.07 L245.33 477.84 L254.67 478.70 L264.00 479.66 L273.33 480.72 L282.67 481.88 L292.00 483.12 L301.33 484.46 L310.67 485.88 L320.00 487.38 L329.33 488.96 L338.67 490.61 L348.00 492.33 L357.33 494.10 L366.67 495.93 L376.00 497.81 L385.33 499.72 L394.67 501.67 L404.00 503.64 L413.33 505.63 L422.67 507.63 L432.00 509.63 L441.33 511.62 L450.67 513.60 L460.00 515.55 L469.33 517.47 L478.67 519.35 L488.00 521.18 L497.33 522.96 L506.67 524.67 L516.00 526.31 L525.33 527.88 L534.67 529.36 L544.00 530.75 L553.33 532.04 L562.67 533.24 L572.00 534.33 L581.33 535.32 L590.67 536.19 L600.00 536.95 L609.33 537.59 L618.67 538.11 L628.00 538.52 L637.33 538.80 L646.67 538.97 L656.00 539.01 L665.33 538.94 L674.67 538.76 L684.00 538.46 L693.33 538.05 L702.67 537.53 L712.00 536.91 L721.33 536.20 L730.67 535.39 L740.00 534.50 L749.33 533.52 L758.67 532.46 L768.00 531.34 L777.33 530.15 L786.67 528.90 L796.00 527.60 L805.33 526.25 L814.67 524.87 L824.00 523.46 L833.33 522.02 L842.67 520.56 L852.00 519.09 L861.33 517.61 L870.67 516.13 L880.00 514.65 L889.33 513.19 L898.67 511.74 L908.00 510.31 L917.33 508.90 L926.67 507.52 L936.00 506.18 L945.33 504.86 L954.67 503.59 L964.00 502.36 L973.33 501.17 L982.67 500.02 L992.00 498.92 L1001.33 497.87 L1010.67 496.86 L1020.00 495.91 L1029.33 495.00 L1038.67 494.13 L1048.00 493.32 L1057.33 492.55 L1066.67 491.83 L1076.00 491.15 L1085.33 490.52 L1094.67 489.93 L1104.00 489.38 L1113.33 488.88 L1122.67 488.40 L1132.00 487.97 L1141.33 487.57 L1150.67 487.21 L1160.00 486.88"></path><path d="M40.00 494.44 L49.33 493.92 L58.67 493.46 L68.00 493.04 L77.33 492.67 L86.67 492.36 L96.00 492.11 L105.33 491.92 L114.67 491.79 L124.00 491.73 L133.33 491.74 L142.67 491.83 L152.00 492.00 L161.33 492.24 L170.67 492.57 L180.00 492.97 L189.33 493.47 L198.67 494.05 L208.00 494.72 L217.33 495.47 L226.67 496.32 L236.00 497.25 L245.33 498.27 L254.67 499.37 L264.00 500.55 L273.33 501.82 L282.67 503.16 L292.00 504.58 L301.33 506.07 L310.67 507.62 L320.00 509.24 L329.33 510.92 L338.67 512.64 L348.00 514.41 L357.33 516.22 L366.67 518.06 L376.00 519.93 L385.33 521.81 L394.67 523.71 L404.00 525.61 L413.33 527.50 L422.67 529.38 L432.00 531.24 L441.33 533.07 L450.67 534.87 L460.00 536.62 L469.33 538.32 L478.67 539.96 L488.00 541.54 L497.33 543.05 L506.67 544.47 L516.00 545.81 L525.33 547.06 L534.67 548.21 L544.00 549.26 L553.33 550.21 L562.67 551.04 L572.00 551.77 L581.33 552.37 L590.67 552.86 L600.00 553.23 L609.33 553.49 L618.67 553.62 L628.00 553.63 L637.33 553.52 L646.67 553.30 L656.00 552.95 L665.33 552.50 L674.67 551.94 L684.00 551.27 L693.33 550.50 L702.67 549.63 L712.00 548.67 L721.33 547.62 L730.67 546.49 L740.00 545.28 L749.33 544.01 L758.67 542.67 L768.00 541.28 L777.33 539.84 L786.67 538.36 L796.00 536.85 L805.33 535.30 L814.67 533.74 L824.00 532.16 L833.33 530.57 L842.67 528.99 L852.00 527.41 L861.33 525.84 L870.67 524.29 L880.00 522.76 L889.33 521.26 L898.67 519.79 L908.00 518.36 L917.33 516.98 L926.67 515.64 L936.00 514.34 L945.33 513.10 L954.67 511.92 L964.00 510.79 L973.33 509.72 L982.67 508.70 L992.00 507.75 L1001.33 506.86 L1010.67 506.03 L1020.00 505.26 L1029.33 504.55 L1038.67 503.91 L1048.00 503.31 L1057.33 502.78 L1066.67 502.30 L1076.00 501.88 L1085.33 501.51 L1094.67 501.19 L1104.00 500.92 L1113.33 500.69 L1122.67 500.51 L1132.00 500.37 L1141.33 500.28 L1150.67 500.22 L1160.00 500.20"></path><path d="M40.00 509.39 L49.33 509.21 L58.67 509.07 L68.00 508.98 L77.33 508.94 L86.67 508.96 L96.00 509.03 L105.33 509.16 L114.67 509.35 L124.00 509.61 L133.33 509.93 L142.67 510.32 L152.00 510.78 L161.33 511.31 L170.67 511.91 L180.00 512.59 L189.33 513.34 L198.67 514.17 L208.00 515.07 L217.33 516.04 L226.67 517.09 L236.00 518.21 L245.33 519.41 L254.67 520.67 L264.00 521.99 L273.33 523.38 L282.67 524.83 L292.00 526.34 L301.33 527.90 L310.67 529.50 L320.00 531.15 L329.33 532.83 L338.67 534.54 L348.00 536.28 L357.33 538.03 L366.67 539.80 L376.00 541.57 L385.33 543.34 L394.67 545.10 L404.00 546.84 L413.33 548.56 L422.67 550.25 L432.00 551.89 L441.33 553.49 L450.67 555.04 L460.00 556.53 L469.33 557.95 L478.67 559.30 L488.00 560.56 L497.33 561.75 L506.67 562.84 L516.00 563.83 L525.33 564.72 L534.67 565.51 L544.00 566.19 L553.33 566.76 L562.67 567.21 L572.00 567.55 L581.33 567.77 L590.67 567.87 L600.00 567.85 L609.33 567.71 L618.67 567.46 L628.00 567.09 L637.33 566.60 L646.67 566.01 L656.00 565.30 L665.33 564.49 L674.67 563.59 L684.00 562.58 L693.33 561.49 L702.67 560.31 L712.00 559.06 L721.33 557.73 L730.67 556.33 L740.00 554.88 L749.33 553.38 L758.67 551.83 L768.00 550.24 L777.33 548.62 L786.67 546.98 L796.00 545.32 L805.33 543.66 L814.67 541.99 L824.00 540.33 L833.33 538.68 L842.67 537.05 L852.00 535.44 L861.33 533.86 L870.67 532.33 L880.00 530.83 L889.33 529.38 L898.67 527.98 L908.00 526.64 L917.33 525.35 L926.67 524.13 L936.00 522.98 L945.33 521.89 L954.67 520.86 L964.00 519.91 L973.33 519.04 L982.67 518.23 L992.00 517.50 L1001.33 516.83 L1010.67 516.24 L1020.00 515.73 L1029.33 515.28 L1038.67 514.89 L1048.00 514.58 L1057.33 514.33 L1066.67 514.14 L1076.00 514.01 L1085.33 513.94 L1094.67 513.92 L1104.00 513.96 L1113.33 514.04 L1122.67 514.18 L1132.00 514.35 L1141.33 514.57 L1150.67 514.82 L1160.00 515.11"></path><path d="M40.00 525.90 L49.33 526.02 L58.67 526.19 L68.00 526.40 L77.33 526.66 L86.67 526.96 L96.00 527.32 L105.33 527.73 L114.67 528.20 L124.00 528.72 L133.33 529.29 L142.67 529.93 L152.00 530.62 L161.33 531.38 L170.67 532.19 L180.00 533.07 L189.33 534.01 L198.67 535.01 L208.00 536.07 L217.33 537.18 L226.67 538.36 L236.00 539.59 L245.33 540.88 L254.67 542.21 L264.00 543.60 L273.33 545.03 L282.67 546.50 L292.00 548.01 L301.33 549.55 L310.67 551.11 L320.00 552.70 L329.33 554.31 L338.67 555.93 L348.00 557.55 L357.33 559.17 L366.67 560.79 L376.00 562.39 L385.33 563.97 L394.67 565.52 L404.00 567.04 L413.33 568.51 L422.67 569.94 L432.00 571.32 L441.33 572.63 L450.67 573.88 L460.00 575.05 L469.33 576.15 L478.67 577.16 L488.00 578.08 L497.33 578.90 L506.67 579.63 L516.00 580.25 L525.33 580.77 L534.67 581.18 L544.00 581.48 L553.33 581.66 L562.67 581.73 L572.00 581.68 L581.33 581.52 L590.67 581.25 L600.00 580.85 L609.33 580.35 L618.67 579.74 L628.00 579.01 L637.33 578.19 L646.67 577.26 L656.00 576.24 L665.33 575.12 L674.67 573.92 L684.00 572.64 L693.33 571.28 L702.67 569.86 L712.00 568.37 L721.33 566.83 L730.67 565.24 L740.00 563.61 L749.33 561.95 L758.67 560.26 L768.00 558.55 L777.33 556.84 L786.67 555.12 L796.00 553.40 L805.33 551.69 L814.67 550.01 L824.00 548.35 L833.33 546.72 L842.67 545.13 L852.00 543.58 L861.33 542.08 L870.67 540.64 L880.00 539.26 L889.33 537.94 L898.67 536.69 L908.00 535.51 L917.33 534.40 L926.67 533.37 L936.00 532.42 L945.33 531.55 L954.67 530.76 L964.00 530.06 L973.33 529.43 L982.67 528.89 L992.00 528.43 L1001.33 528.05 L1010.67 527.75 L1020.00 527.53 L1029.33 527.38 L1038.67 527.30 L1048.00 527.30 L1057.33 527.36 L1066.67 527.49 L1076.00 527.67 L1085.33 527.92 L1094.67 528.22 L1104.00 528.57 L1113.33 528.98 L1122.67 529.42 L1132.00 529.91 L1141.33 530.43 L1150.67 530.99 L1160.00 531.59"></path><path d="M40.00 543.79 L49.33 544.18 L58.67 544.62 L68.00 545.08 L77.33 545.59 L86.67 546.14 L96.00 546.73 L105.33 547.36 L114.67 548.04 L124.00 548.76 L133.33 549.53 L142.67 550.34 L152.00 551.20 L161.33 552.11 L170.67 553.06 L180.00 554.06 L189.33 555.11 L198.67 556.20 L208.00 557.33 L217.33 558.51 L226.67 559.73 L236.00 560.99 L245.33 562.29 L254.67 563.62 L264.00 564.98 L273.33 566.37 L282.67 567.78 L292.00 569.21 L301.33 570.65 L310.67 572.10 L320.00 573.56 L329.33 575.02 L338.67 576.47 L348.00 577.90 L357.33 579.32 L366.67 580.72 L376.00 582.09 L385.33 583.42 L394.67 584.71 L404.00 585.95 L413.33 587.13 L422.67 588.26 L432.00 589.32 L441.33 590.31 L450.67 591.22 L460.00 592.05 L469.33 592.79 L478.67 593.44 L488.00 593.99 L497.33 594.45 L506.67 594.81 L516.00 595.06 L525.33 595.20 L534.67 595.24 L544.00 595.16 L553.33 594.98 L562.67 594.68 L572.00 594.27 L581.33 593.76 L590.67 593.14 L600.00 592.41 L609.33 591.58 L618.67 590.65 L628.00 589.63 L637.33 588.51 L646.67 587.31 L656.00 586.02 L665.33 584.66 L674.67 583.23 L684.00 581.74 L693.33 580.19 L702.67 578.59 L712.00 576.95 L721.33 575.27 L730.67 573.56 L740.00 571.83 L749.33 570.09 L758.67 568.35 L768.00 566.61 L777.33 564.87 L786.67 563.16 L796.00 561.47 L805.33 559.81 L814.67 558.19 L824.00 556.61 L833.33 555.08 L842.67 553.61 L852.00 552.20 L861.33 550.86 L870.67 549.59 L880.00 548.40 L889.33 547.28 L898.67 546.25 L908.00 545.30 L917.33 544.44 L926.67 543.66 L936.00 542.98 L945.33 542.38 L954.67 541.88 L964.00 541.47 L973.33 541.14 L982.67 540.91 L992.00 540.76 L1001.33 540.69 L1010.67 540.71 L1020.00 540.81 L1029.33 540.99 L1038.67 541.23 L1048.00 541.55 L1057.33 541.94 L1066.67 542.39 L1076.00 542.90 L1085.33 543.46 L1094.67 544.08 L1104.00 544.74 L1113.33 545.44 L1122.67 546.18 L1132.00 546.96 L1141.33 547.77 L1150.67 548.61 L1160.00 549.47"></path><path d="M40.00 562.84 L49.33 563.45 L58.67 564.09 L68.00 564.76 L77.33 565.46 L86.67 566.18 L96.00 566.94 L105.33 567.72 L114.67 568.54 L124.00 569.39 L133.33 570.27 L142.67 571.19 L152.00 572.14 L161.33 573.12 L170.67 574.13 L180.00 575.18 L189.33 576.25 L198.67 577.36 L208.00 578.49 L217.33 579.65 L226.67 580.84 L236.00 582.05 L245.33 583.27 L254.67 584.52 L264.00 585.78 L273.33 587.05 L282.67 588.32 L292.00 589.60 L301.33 590.88 L310.67 592.15 L320.00 593.41 L329.33 594.65 L338.67 595.88 L348.00 597.07 L357.33 598.24 L366.67 599.37 L376.00 600.45 L385.33 601.49 L394.67 602.48 L404.00 603.40 L413.33 604.27 L422.67 605.06 L432.00 605.78 L441.33 606.42 L450.67 606.99 L460.00 607.46 L469.33 607.84 L478.67 608.13 L488.00 608.33 L497.33 608.42 L506.67 608.42 L516.00 608.31 L525.33 608.10 L534.67 607.79 L544.00 607.37 L553.33 606.85 L562.67 606.22 L572.00 605.50 L581.33 604.68 L590.67 603.76 L600.00 602.75 L609.33 601.65 L618.67 600.46 L628.00 599.19 L637.33 597.85 L646.67 596.44 L656.00 594.97 L665.33 593.43 L674.67 591.85 L684.00 590.22 L693.33 588.56 L702.67 586.86 L712.00 585.14 L721.33 583.41 L730.67 581.67 L740.00 579.93 L749.33 578.19 L758.67 576.48 L768.00 574.78 L777.33 573.12 L786.67 571.49 L796.00 569.90 L805.33 568.37 L814.67 566.89 L824.00 565.47 L833.33 564.12 L842.67 562.85 L852.00 561.65 L861.33 560.53 L870.67 559.50 L880.00 558.55 L889.33 557.70 L898.67 556.94 L908.00 556.27 L917.33 555.71 L926.67 555.23 L936.00 554.86 L945.33 554.58 L954.67 554.40 L964.00 554.31 L973.33 554.31 L982.67 554.41 L992.00 554.59 L1001.33 554.86 L1010.67 555.21 L1020.00 555.64 L1029.33 556.14 L1038.67 556.71 L1048.00 557.35 L1057.33 558.06 L1066.67 558.81 L1076.00 559.63 L1085.33 560.49 L1094.67 561.39 L1104.00 562.33 L1113.33 563.31 L1122.67 564.31 L1132.00 565.34 L1141.33 566.39 L1150.67 567.46 L1160.00 568.54"></path><path d="M40.00 582.75 L49.33 583.51 L58.67 584.30 L68.00 585.09 L77.33 585.91 L86.67 586.74 L96.00 587.59 L105.33 588.46 L114.67 589.34 L124.00 590.25 L133.33 591.17 L142.67 592.11 L152.00 593.07 L161.33 594.05 L170.67 595.04 L180.00 596.05 L189.33 597.08 L198.67 598.12 L208.00 599.18 L217.33 600.25 L226.67 601.33 L236.00 602.41 L245.33 603.50 L254.67 604.59 L264.00 605.69 L273.33 606.77 L282.67 607.86 L292.00 608.93 L301.33 609.98 L310.67 611.02 L320.00 612.03 L329.33 613.01 L338.67 613.96 L348.00 614.88 L357.33 615.75 L366.67 616.58 L376.00 617.36 L385.33 618.08 L394.67 618.74 L404.00 619.33 L413.33 619.86 L422.67 620.32 L432.00 620.70 L441.33 620.99 L450.67 621.21 L460.00 621.34 L469.33 621.37 L478.67 621.32 L488.00 621.18 L497.33 620.94 L506.67 620.60 L516.00 620.17 L525.33 619.65 L534.67 619.02 L544.00 618.31 L553.33 617.50 L562.67 616.60 L572.00 615.61 L581.33 614.54 L590.67 613.39 L600.00 612.16 L609.33 610.85 L618.67 609.48 L628.00 608.05 L637.33 606.55 L646.67 605.01 L656.00 603.42 L665.33 601.79 L674.67 600.14 L684.00 598.46 L693.33 596.76 L702.67 595.05 L712.00 593.34 L721.33 591.63 L730.67 589.94 L740.00 588.26 L749.33 586.62 L758.67 585.01 L768.00 583.44 L777.33 581.92 L786.67 580.45 L796.00 579.04 L805.33 577.70 L814.67 576.44 L824.00 575.25 L833.33 574.14 L842.67 573.12 L852.00 572.19 L861.33 571.35 L870.67 570.60 L880.00 569.96 L889.33 569.41 L898.67 568.97 L908.00 568.63 L917.33 568.38 L926.67 568.24 L936.00 568.20 L945.33 568.26 L954.67 568.42 L964.00 568.67 L973.33 569.01 L982.67 569.44 L992.00 569.95 L1001.33 570.55 L1010.67 571.23 L1020.00 571.97 L1029.33 572.79 L1038.67 573.67 L1048.00 574.60 L1057.33 575.59 L1066.67 576.63 L1076.00 577.71 L1085.33 578.83 L1094.67 579.98 L1104.00 581.16 L1113.33 582.36 L1122.67 583.58 L1132.00 584.80 L1141.33 586.04 L1150.67 587.28 L1160.00 588.52"></path><path d="M40.00 603.18 L49.33 604.03 L58.67 604.88 L68.00 605.74 L77.33 606.60 L86.67 607.46 L96.00 608.33 L105.33 609.21 L114.67 610.08 L124.00 610.96 L133.33 611.85 L142.67 612.74 L152.00 613.64 L161.33 614.54 L170.67 615.44 L180.00 616.35 L189.33 617.26 L198.67 618.17 L208.00 619.08 L217.33 619.99 L226.67 620.90 L236.00 621.80 L245.33 622.70 L254.67 623.58 L264.00 624.45 L273.33 625.31 L282.67 626.15 L292.00 626.97 L301.33 627.76 L310.67 628.52 L320.00 629.26 L329.33 629.95 L338.67 630.61 L348.00 631.22 L357.33 631.78 L366.67 632.30 L376.00 632.75 L385.33 633.15 L394.67 633.49 L404.00 633.75 L413.33 633.95 L422.67 634.08 L432.00 634.13 L441.33 634.10 L450.67 633.99 L460.00 633.80 L469.33 633.53 L478.67 633.17 L488.00 632.72 L497.33 632.19 L506.67 631.57 L516.00 630.86 L525.33 630.07 L534.67 629.20 L544.00 628.25 L553.33 627.21 L562.67 626.10 L572.00 624.92 L581.33 623.67 L590.67 622.35 L600.00 620.98 L609.33 619.54 L618.67 618.06 L628.00 616.54 L637.33 614.97 L646.67 613.38 L656.00 611.76 L665.33 610.12 L674.67 608.47 L684.00 606.81 L693.33 605.16 L702.67 603.52 L712.00 601.89 L721.33 600.29 L730.67 598.72 L740.00 597.19 L749.33 595.71 L758.67 594.27 L768.00 592.90 L777.33 591.59 L786.67 590.35 L796.00 589.19 L805.33 588.10 L814.67 587.10 L824.00 586.19 L833.33 585.38 L842.67 584.65 L852.00 584.03 L861.33 583.51 L870.67 583.09 L880.00 582.78 L889.33 582.57 L898.67 582.46 L908.00 582.46 L917.33 582.56 L926.67 582.76 L936.00 583.06 L945.33 583.46 L954.67 583.95 L964.00 584.53 L973.33 585.20 L982.67 585.95 L992.00 586.78 L1001.33 587.69 L1010.67 588.66 L1020.00 589.70 L1029.33 590.79 L1038.67 591.94 L1048.00 593.13 L1057.33 594.37 L1066.67 595.64 L1076.00 596.94 L1085.33 598.26 L1094.67 599.61 L1104.00 600.96 L1113.33 602.33 L1122.67 603.69 L1132.00 605.05 L1141.33 606.41 L1150.67 607.75 L1160.00 609.08"></path><path d="M40.00 623.78 L49.33 624.64 L58.67 625.49 L68.00 626.34 L77.33 627.17 L86.67 627.99 L96.00 628.80 L105.33 629.61 L114.67 630.41 L124.00 631.20 L133.33 631.98 L142.67 632.75 L152.00 633.52 L161.33 634.28 L170.67 635.03 L180.00 635.77 L189.33 636.50 L198.67 637.23 L208.00 637.94 L217.33 638.64 L226.67 639.33 L236.00 640.00 L245.33 640.66 L254.67 641.30 L264.00 641.91 L273.33 642.51 L282.67 643.07 L292.00 643.61 L301.33 644.12 L310.67 644.59 L320.00 645.03 L329.33 645.43 L338.67 645.78 L348.00 646.08 L357.33 646.34 L366.67 646.54 L376.00 646.69 L385.33 646.78 L394.67 646.80 L404.00 646.76 L413.33 646.66 L422.67 646.48 L432.00 646.24 L441.33 645.92 L450.67 645.53 L460.00 645.06 L469.33 644.52 L478.67 643.90 L488.00 643.20 L497.33 642.43 L506.67 641.59 L516.00 640.67 L525.33 639.68 L534.67 638.63 L544.00 637.50 L553.33 636.31 L562.67 635.07 L572.00 633.76 L581.33 632.41 L590.67 631.00 L600.00 629.56 L609.33 628.08 L618.67 626.57 L628.00 625.03 L637.33 623.47 L646.67 621.90 L656.00 620.33 L665.33 618.76 L674.67 617.19 L684.00 615.64 L693.33 614.11 L702.67 612.61 L712.00 611.14 L721.33 609.71 L730.67 608.34 L740.00 607.01 L749.33 605.75 L758.67 604.56 L768.00 603.44 L777.33 602.39 L786.67 601.43 L796.00 600.55 L805.33 599.77 L814.67 599.08 L824.00 598.48 L833.33 597.99 L842.67 597.60 L852.00 597.31 L861.33 597.13 L870.67 597.05 L880.00 597.08 L889.33 597.21 L898.67 597.45 L908.00 597.79 L917.33 598.22 L926.67 598.76 L936.00 599.39 L945.33 600.11 L954.67 600.92 L964.00 601.81 L973.33 602.78 L982.67 603.82 L992.00 604.93 L1001.33 606.10 L1010.67 607.33 L1020.00 608.61 L1029.33 609.94 L1038.67 611.30 L1048.00 612.70 L1057.33 614.12 L1066.67 615.57 L1076.00 617.02 L1085.33 618.49 L1094.67 619.96 L1104.00 621.43 L1113.33 622.88 L1122.67 624.33 L1132.00 625.75 L1141.33 627.16 L1150.67 628.53 L1160.00 629.87"></path><path d="M40.00 644.20 L49.33 645.01 L58.67 645.78 L68.00 646.54 L77.33 647.28 L86.67 647.99 L96.00 648.68 L105.33 649.36 L114.67 650.01 L124.00 650.64 L133.33 651.26 L142.67 651.86 L152.00 652.44 L161.33 653.01 L170.67 653.55 L180.00 654.08 L189.33 654.59 L198.67 655.09 L208.00 655.56 L217.33 656.02 L226.67 656.46 L236.00 656.87 L245.33 657.26 L254.67 657.63 L264.00 657.97 L273.33 658.29 L282.67 658.57 L292.00 658.82 L301.33 659.04 L310.67 659.23 L320.00 659.37 L329.33 659.47 L338.67 659.53 L348.00 659.55 L357.33 659.51 L366.67 659.43 L376.00 659.29 L385.33 659.09 L394.67 658.84 L404.00 658.54 L413.33 658.17 L422.67 657.73 L432.00 657.24 L441.33 656.68 L450.67 656.06 L460.00 655.37 L469.33 654.62 L478.67 653.81 L488.00 652.93 L497.33 651.99 L506.67 650.98 L516.00 649.92 L525.33 648.81 L534.67 647.64 L544.00 646.42 L553.33 645.15 L562.67 643.84 L572.00 642.49 L581.33 641.11 L590.67 639.70 L600.00 638.26 L609.33 636.81 L618.67 635.34 L628.00 633.87 L637.33 632.40 L646.67 630.93 L656.00 629.48 L665.33 628.04 L674.67 626.63 L684.00 625.25 L693.33 623.90 L702.67 622.60 L712.00 621.36 L721.33 620.16 L730.67 619.03 L740.00 617.97 L749.33 616.98 L758.67 616.07 L768.00 615.24 L777.33 614.50 L786.67 613.85 L796.00 613.29 L805.33 612.83 L814.67 612.48 L824.00 612.22 L833.33 612.06 L842.67 612.01 L852.00 612.07 L861.33 612.22 L870.67 612.49 L880.00 612.85 L889.33 613.32 L898.67 613.88 L908.00 614.54 L917.33 615.30 L926.67 616.14 L936.00 617.07 L945.33 618.08 L954.67 619.17 L964.00 620.32 L973.33 621.55 L982.67 622.83 L992.00 624.17 L1001.33 625.56 L1010.67 626.99 L1020.00 628.46 L1029.33 629.95 L1038.67 631.47 L1048.00 633.01 L1057.33 634.55 L1066.67 636.10 L1076.00 637.65 L1085.33 639.19 L1094.67 640.71 L1104.00 642.22 L1113.33 643.69 L1122.67 645.14 L1132.00 646.56 L1141.33 647.93 L1150.67 649.26 L1160.00 650.54"></path></g></svg>
